<?xml version="1.0" encoding="utf-8"?>
<!-- Generator: Adobe Illustrator 23.0.0, SVG Export Plug-In . SVG Version: 6.00 Build 0)  -->
<svg version="1.1" id="Capa_1" xmlns="http://www.w3.org/2000/svg" xmlns:xlink="http://www.w3.org/1999/xlink" x="0px" y="0px"
	 viewBox="0 0 684 147" style="enable-background:new 0 0 684 147;" xml:space="preserve">
<style type="text/css">
	.st0{fill:#DA4168;}
	.st1{fill:#053D7E;}
	.st2{display:none;}
	.st3{display:inline;fill:#00205D;}
	.st4{display:inline;}
	.st5{fill:none;stroke:#FFFFFF;stroke-width:9;stroke-miterlimit:10;stroke-dasharray:54.3577,54.3577;}
	.st6{display:inline;fill:none;stroke:#FFFFFF;stroke-miterlimit:10;}
	.st7{display:inline;stroke:#FFFFFF;stroke-miterlimit:10;}
	.st8{display:inline;fill:#FFFFFF;}
	.st9{fill:#00205D;}
	.st10{fill:none;stroke:#FFFFFF;stroke-miterlimit:10;stroke-dasharray:6.7848,6.7848;}
	.st11{fill:#FF073E;}
	.st12{font-family:'Montserrat-ExtraBold';}
	.st13{font-size:14.7632px;}
	.st14{fill:#FFFFFF;}
	.st15{font-size:31.8528px;}
	.st16{fill:none;stroke:#FFFFFF;stroke-width:0.25;stroke-miterlimit:10;}
	.st17{stroke:#FFFFFF;stroke-width:0.25;stroke-miterlimit:10;}
</style>
<g>
	<g>
		<path class="st0" d="M174.4,108.2c-19,0-18.5-9.6-18.5-9.6h28.9c26.2,0,24-21.9,24-21.9c-0.2-15.8-11.5-22.4-11.5-22.4
			c-14-10.3-51.4-4.6-51.4-4.6c-24,5.3-26,27.1-26,27.1c-3.9,22.1,2.6,36.8,2.6,36.8c9.8,22.9,43.1,20.7,43.1,20.7
			c34.4-0.5,40.7-7.5,40.7-7.5l-3.3-20.5C199.8,107,174.4,108.2,174.4,108.2z M155.4,77.7c0,0,0.7-7.7,9.1-7.7h5.5c0,0,5,1.5,5.5,5
			c0,0.2,0,0.3,0,0.5c0,1.7,0,2.4,0,2.6s0,0.2,0,0.2s0,0,0-0.2c0,0-0.2,4.3-5.3,4.3h-14.9L155.4,77.7L155.4,77.7z"/>
		<path class="st0" d="M175.5,78.3C175.5,78.4,175.5,78.4,175.5,78.3"/>
	</g>
	<path class="st0" d="M228,28.6v21.9h-13.7v20.4H228v41.8c0,0-1.4,18.8,23.6,22.4c0,0,21.1,0,31.2-4.6l-4.3-22.1h-9.9
		c0,0-6-0.5-6-6.3V70.7h20V50.3h-19.9V28.6H228z"/>
	<path class="st1" d="M298.6,19.7l0.9,24.1h35.4c0,0,10.1,0.5,10.1,8.4V57c0,0-1,5.8-8.7,5.8h-25.5v21.9h25.9c0,0,9.6,0.7,9.6,9.4
		v4.5c0,0-0.7,8.4-10.3,8.4c0,0-12.2,1.4-38.9-0.7l-1,25.3c0,0,51,7.2,69.3-1c0,0,18.7-7.4,16.1-31.2c0,0,2.9-25.9-21.9-26.9v-1
		c0,0,16.9,1.2,18.5-21.2c0,0,5.1-23.5-13-30.8C364.8,19.7,353.7,13,298.6,19.7z"/>
	<g>
		<path class="st1" d="M490.7,77.4c0-7.7-0.7-15.4-1.5-22.9c-1-9.2-3.6-18.8-9.9-25.7c-4.3-4.8-10.1-7.9-16.3-9.8
			c-9.1-2.7-19-2.9-28.4-2.4c-8.6,0.5-17.6,2.2-25,7c-13.4,8.7-14.6,23.6-16.1,38c-1.9,17.5-1,36.8,5.6,53.1c0.5,1.2,1,2.4,1.7,3.4
			c3.3,5.3,8.6,9.1,14.2,11.5c6.2,2.6,12.8,3.9,19.5,4.6c14.4,1.5,33.6,0.2,44.2-11.1C489.5,112.5,490.8,92.1,490.7,77.4z
			 M441.9,108.2c0,0-11.8,1-12.5-13.5V54.6c0,0,0-11.6,12.5-11.6c0,0,11.6,0.7,12.2,11.6v39.9C454,94.5,454.7,108,441.9,108.2z"/>
	</g>
	<g>
		<path class="st0" d="M109.2,95.5c0,0-2.9-20.4-23.3-21.2c0,0,22.8-5,20.4-29.1c0,0,0.3-19.9-18.3-25.3c0,0-8.4-3.8-73.8-1.2V132
			c0,0,60.3,4.5,79.3-1.7C93.5,130.3,115,125,109.2,95.5z M49,41.1h13.4c9.8,0,9.4,11.3,9.4,11.3c0,11.5-7.9,11.3-7.9,11.3H49V41.1z
			 M75,97.6c0,13.2-9.1,12.8-9.1,12.8H49V84.8h15.2C75.3,84.8,75,97.6,75,97.6z"/>
	</g>
</g>
<g class="st2">
	<circle class="st3" cx="863.8" cy="650.5" r="229.4"/>
</g>
<g id="Capa_3" class="st2">
	<g class="st4">
		<ellipse class="st5" cx="865" cy="655.3" rx="155.7" ry="155.7"/>
	</g>
	<text transform="matrix(1 0 0 1 763.8121 619.1491)" class="st12" style="display:inline;fill:#FF073E; font-size:51.7982px;">GRUPO </text>
	<text transform="matrix(1 0 0 1 798.0262 742.9963)" class="st8 st12" style="font-size:111.7586px;">91</text>
	<path class="st6" d="M825.9,432.5l8.4,34c0,0,1.3,11.5,14,11.5h33.4c0,0,9.4,1,15.3-9.7l6.6-30.4c0,0,2-6.1-6.4-8.9
		c0,0-12.3-6.1-60.3-1.5C837.1,427.4,828.5,427.9,825.9,432.5z"/>
	<path class="st6" d="M1033.4,509l-25.4,24.1c0,0-9.4,6.8-3.1,17.9l16.5,29.1c0,0,3.8,8.7,16,8.5l29.7-9.2c0,0,6.3-1.2,4.6-10
		c0,0-0.7-13.7-28.4-53.2C1043.4,516.3,1038.7,509,1033.4,509z"/>
	<path class="st6" d="M658.9,577.2l33.8,9.2c0,0,10.7,4.5,16.9-6.6l16.3-29.2c0,0,5.5-7.7-1-18.1l-23.3-20.6c0,0-4.4-4.8-10.9,1.2
		c0,0-11.3,7.7-30.7,51.8C659.9,564.9,656.1,572.7,658.9,577.2z"/>
	<path class="st6" d="M904,869.7l-8.4-34c0,0-1.3-11.5-14-11.5h-33.4c0,0-9.4-1-15.3,9.7l-6.6,30.4c0,0-2,6.1,6.4,8.9
		c0,0,12.3,6.1,60.3,1.5C892.8,874.9,901.5,874.3,904,869.7z"/>
	<path class="st6" d="M697.5,798.2l25.4-24.1c0,0,9.4-6.8,3.1-17.9l-16.5-29.1c0,0-3.8-8.7-16-8.5l-29.7,9.2c0,0-6.3,1.2-4.6,10
		c0,0,0.7,13.7,28.4,53.2C687.5,791,692.3,798.3,697.5,798.2z"/>
	<path class="st6" d="M1069,729.1l-33.8-9.2c0,0-10.7-4.5-16.9,6.6l-16.3,29.2c0,0-5.5,7.7,1,18.1l23.3,20.6c0,0,4.4,4.8,10.9-1.2
		c0,0,11.3-7.7,30.7-51.8C1068,741.4,1071.8,733.5,1069,729.1z"/>
	<rect x="654.1" y="634.2" class="st7" width="38.9" height="38.9"/>
	<rect x="751" y="804.7" transform="matrix(0.5 -0.866 0.866 0.5 -328.5273 1079.2688)" class="st7" width="38.9" height="38.9"/>
	<rect x="940.7" y="804.7" transform="matrix(0.866 -0.5 0.5 0.866 -283.4525 590.4854)" class="st7" width="38.9" height="38.9"/>
	<rect x="751.7" y="464" transform="matrix(0.866 -0.5 0.5 0.866 -138.4083 450.3344)" class="st7" width="38.9" height="38.9"/>
	<rect x="941.3" y="464" transform="matrix(0.5 -0.866 0.866 0.5 61.6441 1073.7659)" class="st7" width="38.9" height="38.9"/>
	<rect x="1038.4" y="634.2" class="st7" width="38.9" height="38.9"/>
	<circle class="st8" cx="661.8" cy="642.1" r="2.7"/>
	<circle class="st8" cx="684.4" cy="665.3" r="2.7"/>
	<circle class="st8" cx="766.5" cy="808.6" r="2.7"/>
	<circle class="st8" cx="769.7" cy="823.1" r="2.7"/>
	<circle class="st8" cx="964.6" cy="809.4" r="2.7"/>
	<circle class="st8" cx="957.4" cy="838" r="2.7"/>
	<circle class="st8" cx="773.8" cy="839.2" r="2.7"/>
	<circle class="st8" cx="1046.4" cy="663.2" r="2.7"/>
	<circle class="st8" cx="1058.5" cy="663.2" r="2.7"/>
	<circle class="st8" cx="1070" cy="663.2" r="2.7"/>
	<circle class="st8" cx="1046.4" cy="644.9" r="2.7"/>
	<circle class="st8" cx="1058.5" cy="644.9" r="2.7"/>
	<circle class="st8" cx="1070" cy="644.9" r="2.7"/>
	<circle class="st8" cx="948.2" cy="486.6" r="2.7"/>
	<circle class="st8" cx="771.1" cy="483.5" r="2.7"/>
	<circle class="st8" cx="964.4" cy="495.6" r="2.7"/>
	<circle class="st8" cx="957.7" cy="471" r="2.7"/>
	<circle class="st8" cx="974" cy="480" r="2.7"/>
</g>
<g id="Capa_4">
	<circle class="st9" cx="607.6" cy="76.2" r="65.4"/>
	<g>
		<ellipse class="st10" cx="607.9" cy="77.6" rx="44.3" ry="44.3"/>
	</g>
	<text transform="matrix(1 0 0 1 579.1777 67.2725)" class="st11 st12 st13">GRUPO </text>
	<text transform="matrix(1 0 0 1 588.9287 102.5728)" class="st14 st12 st15">91</text>
	<path class="st16" d="M596.8,14.1l2.4,9.8c0,0,0.3,3.3,3.9,3.3h9.6c0,0,2.7,0.3,4.5-2.7l1.9-8.7c0,0,0.5-1.7-1.9-2.6
		c0,0-3.4-1.7-17.1-0.5C600.1,12.7,597.7,12.9,596.8,14.1z"/>
	<path class="st16" d="M656.1,36l-7.2,6.8c0,0-2.7,1.9-0.9,5.1l4.6,8.2c0,0,1,2.6,4.6,2.4l8.4-2.6c0,0,1.9-0.3,1.4-2.9
		c0,0-0.2-3.9-8-15.2C658.8,38,657.6,35.8,656.1,36z"/>
	<path class="st16" d="M549.2,55.3l9.6,2.6c0,0,3.1,1.2,4.8-1.9l4.6-8.4c0,0,1.5-2.2-0.3-5.1l-6.7-5.8c0,0-1.2-1.4-3.1,0.3
		c0,0-3.3,2.2-8.7,14.7C549.6,51.9,548.5,54.1,549.2,55.3z"/>
	<path class="st16" d="M619.1,138.7l-2.4-9.8c0,0-0.3-3.3-3.9-3.3h-9.6c0,0-2.7-0.3-4.5,2.7l-1.9,8.7c0,0-0.5,1.7,1.9,2.6
		c0,0,3.4,1.7,17.1,0.5C616,140.2,618.4,140.1,619.1,138.7z"/>
	<path class="st16" d="M560.3,118.3l7.2-6.8c0,0,2.7-1.9,0.9-5.1l-4.6-8.2c0,0-1-2.6-4.6-2.4l-8.4,2.6c0,0-1.9,0.3-1.4,2.9
		c0,0,0.2,3.9,8,15.2C557.4,116.3,558.8,118.3,560.3,118.3z"/>
	<path class="st16" d="M666.2,98.6l-9.6-2.6c0,0-3.1-1.2-4.8,1.9l-4.6,8.4c0,0-1.5,2.2,0.3,5.1l6.7,5.8c0,0,1.2,1.4,3.1-0.3
		c0,0,3.3-2.2,8.7-14.7C665.8,102.1,667,99.8,666.2,98.6z"/>
	<rect x="547.8" y="71.6" class="st17" width="11.1" height="11.1"/>
	<rect x="575.5" y="120.2" transform="matrix(0.5 -0.866 0.866 0.5 181.5965 566.1317)" class="st17" width="11.1" height="11.1"/>
	<rect x="629.6" y="120.1" transform="matrix(0.866 -0.5 0.5 0.866 22.2785 334.4053)" class="st17" width="11.1" height="11.1"/>
	<rect x="575.8" y="23.1" transform="matrix(0.866 -0.5 0.5 0.866 63.5625 294.5143)" class="st17" width="11.1" height="11.1"/>
	<rect x="629.7" y="22.9" transform="matrix(0.5 -0.866 0.866 0.5 292.9697 564.4183)" class="st17" width="11.1" height="11.1"/>
	<rect x="657.4" y="71.6" class="st17" width="11.1" height="11.1"/>
	<circle class="st14" cx="556.6" cy="80.5" r="0.7"/>
	<circle class="st14" cx="550.4" cy="74" r="0.7"/>
	<circle class="st14" cx="579.9" cy="121.2" r="0.7"/>
	<circle class="st14" cx="580.9" cy="125.3" r="0.7"/>
	<circle class="st14" cx="636.4" cy="121.6" r="0.7"/>
	<circle class="st14" cx="634.3" cy="129.6" r="0.7"/>
	<circle class="st14" cx="582.1" cy="130" r="0.7"/>
	<circle class="st14" cx="659.6" cy="79.8" r="0.7"/>
	<circle class="st14" cx="663.2" cy="79.8" r="0.7"/>
	<circle class="st14" cx="666.5" cy="79.8" r="0.7"/>
	<circle class="st14" cx="659.6" cy="74.7" r="0.7"/>
	<circle class="st14" cx="663.2" cy="74.7" r="0.7"/>
	<circle class="st14" cx="666.5" cy="74.7" r="0.7"/>
	<circle class="st14" cx="631.7" cy="29.5" r="0.7"/>
	<circle class="st14" cx="581.2" cy="28.6" r="0.7"/>
	<circle class="st14" cx="636.4" cy="32" r="0.7"/>
	<circle class="st14" cx="634.5" cy="25" r="0.7"/>
	<circle class="st14" cx="639.1" cy="27.6" r="0.7"/>
</g>
</svg>
