<?xml version="1.0" encoding="utf-8"?>
<!-- Generator: Adobe Illustrator 23.0.0, SVG Export Plug-In . SVG Version: 6.00 Build 0)  -->
<svg version="1.1" id="Capa_1" xmlns="http://www.w3.org/2000/svg" xmlns:xlink="http://www.w3.org/1999/xlink" x="0px" y="0px"
	 viewBox="0 0 684 162.8" style="enable-background:new 0 0 684 162.8;" xml:space="preserve">
<style type="text/css">
	.st0{display:none;}
	.st1{display:inline;fill:#00205D;}
	.st2{display:inline;}
	.st3{fill:none;stroke:#FFFFFF;stroke-width:9;stroke-miterlimit:10;stroke-dasharray:54.3577,54.3577;}
	.st4{display:inline;fill:none;stroke:#FFFFFF;stroke-miterlimit:10;}
	.st5{display:inline;stroke:#FFFFFF;stroke-miterlimit:10;}
	.st6{display:inline;fill:#FFFFFF;}
	.st7{fill:#00205D;}
	.st8{fill:none;stroke:#FFFFFF;stroke-miterlimit:10;stroke-dasharray:6.7848,6.7848;}
	.st9{enable-background:new    ;}
	.st10{fill:#FF073E;}
	.st11{fill:#FFFFFF;}
	.st12{fill:none;stroke:#FFFFFF;stroke-width:0.25;stroke-miterlimit:10;}
	.st13{stroke:#FFFFFF;stroke-width:0.25;stroke-miterlimit:10;}
	.st14{fill:#DA4167;}
</style>
<g class="st0">
	<circle class="st1" cx="863.8" cy="666.3" r="229.4"/>
</g>
<g id="Capa_3" class="st0">
	<g class="st2">
		<ellipse class="st3" cx="865" cy="671.1" rx="155.7" ry="155.7"/>
	</g>
	
		<text transform="matrix(1 0 0 1 763.8121 634.9789)" style="display:inline;fill:#FF073E; font-family:'Montserrat-ExtraBold'; font-size:51.7982px;">GRUPO </text>
	
		<text transform="matrix(1 0 0 1 798.0262 758.826)" class="st6" style="font-family:'Montserrat-ExtraBold'; font-size:111.7586px;">91</text>
	<path class="st4" d="M825.9,448.3l8.4,34c0,0,1.3,11.5,14,11.5h33.4c0,0,9.4,1,15.3-9.7l6.6-30.4c0,0,2-6.1-6.4-8.9
		c0,0-12.3-6.1-60.3-1.5C837.1,443.2,828.5,443.7,825.9,448.3z"/>
	<path class="st4" d="M1033.4,524.8l-25.4,24.1c0,0-9.4,6.8-3.1,17.9l16.5,29.1c0,0,3.8,8.7,16,8.5l29.7-9.2c0,0,6.3-1.2,4.6-10
		c0,0-0.7-13.7-28.4-53.2C1043.4,532.1,1038.7,524.8,1033.4,524.8z"/>
	<path class="st4" d="M658.9,593l33.8,9.2c0,0,10.7,4.5,16.9-6.6l16.3-29.2c0,0,5.5-7.7-1-18.1l-23.3-20.6c0,0-4.4-4.8-10.9,1.2
		c0,0-11.3,7.7-30.7,51.8C659.9,580.7,656.1,588.5,658.9,593z"/>
	<path class="st4" d="M904,885.5l-8.4-34c0,0-1.3-11.5-14-11.5h-33.4c0,0-9.4-1-15.3,9.7l-6.6,30.4c0,0-2,6.1,6.4,8.9
		c0,0,12.3,6.1,60.3,1.5C892.8,890.7,901.5,890.1,904,885.5z"/>
	<path class="st4" d="M697.5,814l25.4-24.1c0,0,9.4-6.8,3.1-17.9l-16.5-29.1c0,0-3.8-8.7-16-8.5l-29.7,9.2c0,0-6.3,1.2-4.6,10
		c0,0,0.7,13.7,28.4,53.2C687.5,806.8,692.3,814.1,697.5,814z"/>
	<path class="st4" d="M1069,744.9l-33.8-9.2c0,0-10.7-4.5-16.9,6.6l-16.3,29.2c0,0-5.5,7.7,1,18.1l23.3,20.6c0,0,4.4,4.8,10.9-1.2
		c0,0,11.3-7.7,30.7-51.8C1068,757.2,1071.8,749.3,1069,744.9z"/>
	<rect x="654.1" y="650" class="st5" width="38.9" height="38.9"/>
	<rect x="751" y="820.5" transform="matrix(0.5 -0.866 0.866 0.5 -342.2361 1087.1836)" class="st5" width="38.9" height="38.9"/>
	<rect x="940.7" y="820.5" transform="matrix(0.866 -0.5 0.5 0.866 -291.3676 592.6063)" class="st5" width="38.9" height="38.9"/>
	<rect x="751.7" y="479.8" transform="matrix(0.866 -0.5 0.5 0.866 -146.3234 452.4554)" class="st5" width="38.9" height="38.9"/>
	<rect x="941.3" y="479.9" transform="matrix(0.5 -0.866 0.866 0.5 47.9352 1081.6805)" class="st5" width="38.9" height="38.9"/>
	<rect x="1038.4" y="650" class="st5" width="38.9" height="38.9"/>
	<circle class="st6" cx="661.8" cy="657.9" r="2.7"/>
	<circle class="st6" cx="684.4" cy="681.1" r="2.7"/>
	<circle class="st6" cx="766.5" cy="824.4" r="2.7"/>
	<circle class="st6" cx="769.7" cy="838.9" r="2.7"/>
	<circle class="st6" cx="964.6" cy="825.2" r="2.7"/>
	<circle class="st6" cx="957.4" cy="853.8" r="2.7"/>
	<circle class="st6" cx="773.8" cy="855" r="2.7"/>
	<circle class="st6" cx="1046.4" cy="679" r="2.7"/>
	<circle class="st6" cx="1058.5" cy="679" r="2.7"/>
	<circle class="st6" cx="1070" cy="679" r="2.7"/>
	<circle class="st6" cx="1046.4" cy="660.7" r="2.7"/>
	<circle class="st6" cx="1058.5" cy="660.7" r="2.7"/>
	<circle class="st6" cx="1070" cy="660.7" r="2.7"/>
	<circle class="st6" cx="948.2" cy="502.4" r="2.7"/>
	<circle class="st6" cx="771.1" cy="499.3" r="2.7"/>
	<circle class="st6" cx="964.4" cy="511.4" r="2.7"/>
	<circle class="st6" cx="957.7" cy="486.8" r="2.7"/>
	<circle class="st6" cx="974" cy="495.8" r="2.7"/>
</g>
<circle class="st7" cx="607.6" cy="82.1" r="65.4"/>
<g>
	<ellipse class="st8" cx="607.9" cy="83.5" rx="44.3" ry="44.3"/>
</g>
<g class="st9">
	<path class="st10" d="M587.1,67.7h2.6V72c-0.6,0.4-1.3,0.7-2,1c-0.8,0.2-1.5,0.3-2.3,0.3c-1.1,0-2.1-0.2-2.9-0.7
		c-0.9-0.5-1.5-1.1-2-1.9s-0.7-1.7-0.7-2.8c0-1,0.2-2,0.7-2.8c0.5-0.8,1.2-1.5,2.1-1.9s1.9-0.7,3-0.7c1,0,1.8,0.2,2.6,0.5
		c0.8,0.3,1.4,0.8,1.9,1.4l-1.9,1.7c-0.7-0.8-1.5-1.2-2.5-1.2c-0.9,0-1.6,0.3-2.1,0.8c-0.5,0.5-0.8,1.3-0.8,2.1
		c0,0.6,0.1,1.1,0.4,1.5s0.6,0.8,1,1c0.4,0.3,0.9,0.4,1.5,0.4c0.6,0,1.1-0.1,1.6-0.3V67.7z"/>
	<path class="st10" d="M596.1,70.4h-1.6v2.7h-2.9V62.8h4.7c0.9,0,1.7,0.2,2.4,0.5c0.7,0.3,1.2,0.8,1.6,1.3s0.6,1.3,0.6,2
		c0,0.7-0.2,1.4-0.5,2c-0.3,0.6-0.8,1-1.5,1.3l2.2,3.2H598L596.1,70.4z M597.5,65.5c-0.3-0.3-0.8-0.4-1.4-0.4h-1.6v3h1.6
		c0.6,0,1.1-0.1,1.4-0.4c0.3-0.3,0.5-0.6,0.5-1.1C597.9,66.1,597.8,65.8,597.5,65.5z"/>
	<path class="st10" d="M603.7,72.1c-0.9-0.8-1.3-2-1.3-3.6v-5.7h2.9v5.6c0,1.7,0.7,2.5,2,2.5c1.3,0,1.9-0.8,1.9-2.5v-5.6h2.9v5.7
		c0,1.5-0.4,2.7-1.3,3.6c-0.9,0.8-2,1.3-3.6,1.3S604.5,72.9,603.7,72.1z"/>
	<path class="st10" d="M621.3,63.3c0.7,0.3,1.2,0.8,1.6,1.3s0.6,1.3,0.6,2c0,0.8-0.2,1.5-0.6,2s-0.9,1-1.6,1.3
		c-0.7,0.3-1.5,0.5-2.4,0.5H617v2.7h-2.9V62.8h4.7C619.8,62.8,620.6,63,621.3,63.3z M620,67.7c0.3-0.3,0.5-0.6,0.5-1.1
		c0-0.5-0.2-0.9-0.5-1.1c-0.3-0.3-0.8-0.4-1.4-0.4H617v3h1.6C619.3,68.1,619.7,68,620,67.7z"/>
	<path class="st10" d="M627.3,72.6c-0.9-0.5-1.6-1.1-2.1-1.9s-0.7-1.7-0.7-2.8s0.2-1.9,0.7-2.8s1.2-1.5,2.1-1.9
		c0.9-0.5,1.9-0.7,2.9-0.7c1.1,0,2.1,0.2,2.9,0.7c0.9,0.5,1.6,1.1,2.1,1.9s0.7,1.7,0.7,2.8s-0.2,1.9-0.7,2.8s-1.2,1.5-2.1,1.9
		c-0.9,0.5-1.9,0.7-2.9,0.7C629.1,73.3,628.1,73.1,627.3,72.6z M631.6,70.6c0.4-0.2,0.8-0.6,1-1c0.2-0.4,0.4-1,0.4-1.5
		s-0.1-1.1-0.4-1.5c-0.2-0.4-0.6-0.8-1-1s-0.9-0.4-1.4-0.4c-0.5,0-1,0.1-1.4,0.4c-0.4,0.2-0.8,0.6-1,1c-0.2,0.4-0.4,1-0.4,1.5
		s0.1,1.1,0.4,1.5c0.2,0.4,0.6,0.8,1,1c0.4,0.2,0.9,0.4,1.4,0.4C630.7,70.9,631.2,70.8,631.6,70.6z"/>
</g>
<g class="st9">
	<path class="st11" d="M605.7,88.5c1.8,1.9,2.8,4.6,2.8,8.2c0,2.5-0.5,4.7-1.5,6.6c-1,1.8-2.4,3.2-4.2,4.2c-1.8,1-3.9,1.4-6.2,1.4
		c-1.3,0-2.5-0.1-3.6-0.4c-1.1-0.3-2.1-0.7-2.9-1.2l2.3-4.5c1.1,0.8,2.5,1.1,4.1,1.1c1.6,0,2.9-0.4,3.9-1.3c1-0.9,1.6-2.2,1.7-3.8
		c-1.3,1.1-2.9,1.6-5,1.6c-1.4,0-2.7-0.3-3.9-0.9c-1.2-0.6-2.1-1.4-2.8-2.5c-0.7-1.1-1-2.3-1-3.7c0-1.5,0.4-2.8,1.2-4s1.8-2,3.2-2.7
		c1.3-0.6,2.8-0.9,4.4-0.9C601.4,85.7,603.9,86.6,605.7,88.5z M600.8,95c0.6-0.5,0.9-1.2,0.9-2.1c0-0.8-0.3-1.5-0.8-2
		c-0.6-0.5-1.3-0.8-2.3-0.8c-0.9,0-1.6,0.3-2.2,0.8c-0.6,0.5-0.8,1.2-0.8,2.1c0,0.8,0.3,1.5,0.8,2c0.6,0.5,1.3,0.8,2.2,0.8
		C599.5,95.8,600.3,95.6,600.8,95z"/>
	<path class="st11" d="M620,86.1v22.3h-6.3V91h-4.1v-4.9H620z"/>
</g>
<path class="st12" d="M596.8,19.9l2.4,9.8c0,0,0.3,3.3,3.9,3.3h9.6c0,0,2.7,0.3,4.5-2.7l1.9-8.7c0,0,0.5-1.7-1.9-2.6
	c0,0-3.4-1.7-17.1-0.5C600.1,18.5,597.7,18.7,596.8,19.9z"/>
<path class="st12" d="M656.1,41.8l-7.2,6.8c0,0-2.7,1.9-0.9,5.1l4.6,8.2c0,0,1,2.6,4.6,2.4l8.4-2.6c0,0,1.9-0.3,1.4-2.9
	c0,0-0.2-3.9-8-15.2C658.8,43.9,657.6,41.7,656.1,41.8z"/>
<path class="st12" d="M549.2,61.2l9.6,2.6c0,0,3.1,1.2,4.8-1.9l4.6-8.4c0,0,1.5-2.2-0.3-5.1l-6.7-5.8c0,0-1.2-1.4-3.1,0.3
	c0,0-3.3,2.2-8.7,14.7C549.6,57.8,548.5,60,549.2,61.2z"/>
<path class="st12" d="M619.1,144.6l-2.4-9.8c0,0-0.3-3.3-3.9-3.3h-9.6c0,0-2.7-0.3-4.5,2.7l-1.9,8.7c0,0-0.5,1.7,1.9,2.6
	c0,0,3.4,1.7,17.1,0.5C616,146.1,618.4,145.9,619.1,144.6z"/>
<path class="st12" d="M560.3,124.2l7.2-6.8c0,0,2.7-1.9,0.9-5.1l-4.6-8.2c0,0-1-2.6-4.6-2.4l-8.4,2.6c0,0-1.9,0.3-1.4,2.9
	c0,0,0.2,3.9,8,15.2C557.4,122.1,558.8,124.2,560.3,124.2z"/>
<path class="st12" d="M666.2,104.5l-9.6-2.6c0,0-3.1-1.2-4.8,1.9l-4.6,8.4c0,0-1.5,2.2,0.3,5.1l6.7,5.8c0,0,1.2,1.4,3.1-0.3
	c0,0,3.3-2.2,8.7-14.7C665.8,107.9,667,105.7,666.2,104.5z"/>
<rect x="547.8" y="77.4" class="st13" width="11.1" height="11.1"/>
<rect x="575.5" y="126.1" transform="matrix(0.5 -0.866 0.866 0.5 176.52 569.0626)" class="st13" width="11.1" height="11.1"/>
<rect x="629.6" y="125.9" transform="matrix(0.866 -0.5 0.5 0.866 19.3475 335.1907)" class="st13" width="11.1" height="11.1"/>
<rect x="575.8" y="28.9" transform="matrix(0.866 -0.5 0.5 0.866 60.6315 295.2997)" class="st13" width="11.1" height="11.1"/>
<rect x="629.7" y="28.8" transform="matrix(0.5 -0.866 0.866 0.5 287.8932 567.3492)" class="st13" width="11.1" height="11.1"/>
<rect x="657.4" y="77.4" class="st13" width="11.1" height="11.1"/>
<circle class="st11" cx="556.6" cy="86.3" r="0.7"/>
<circle class="st11" cx="550.4" cy="79.8" r="0.7"/>
<circle class="st11" cx="579.9" cy="127.1" r="0.7"/>
<circle class="st11" cx="580.9" cy="131.2" r="0.7"/>
<circle class="st11" cx="636.4" cy="127.4" r="0.7"/>
<circle class="st11" cx="634.3" cy="135.5" r="0.7"/>
<circle class="st11" cx="582.1" cy="135.8" r="0.7"/>
<circle class="st11" cx="659.6" cy="85.7" r="0.7"/>
<circle class="st11" cx="663.2" cy="85.7" r="0.7"/>
<circle class="st11" cx="666.5" cy="85.7" r="0.7"/>
<circle class="st11" cx="659.6" cy="80.5" r="0.7"/>
<circle class="st11" cx="663.2" cy="80.5" r="0.7"/>
<circle class="st11" cx="666.5" cy="80.5" r="0.7"/>
<circle class="st11" cx="631.7" cy="35.3" r="0.7"/>
<circle class="st11" cx="581.2" cy="34.5" r="0.7"/>
<circle class="st11" cx="636.4" cy="37.9" r="0.7"/>
<circle class="st11" cx="634.5" cy="30.9" r="0.7"/>
<circle class="st11" cx="639.1" cy="33.4" r="0.7"/>
<g>
	<g>
		<path class="st11" d="M35.1,52.3v20.5c4.6-0.4,8.1-2.4,10.7-5.9c2.4-3.7,3.7-8.6,3.7-14.7h27.8c0,7.6-1,13.8-2.9,18.7
			c-2.1,4.9-5.1,9-9.3,12.2c8.4,6.5,13.1,16.7,13.9,31H49.4c-0.7-14.7-5.5-22.2-14.3-22.5V114H7.7V52.3
			C7.7,52.3,35.1,52.3,35.1,52.3z"/>
		<path class="st11" d="M117.9,114.9c-8.8,0-16.3-3.1-22.5-9.3S86.2,91.8,86.2,83s3.1-16.4,9.3-22.6s13.6-9.3,22.5-9.3
			s16.3,3.1,22.5,9.3s9.3,13.6,9.3,22.6c0,8.8-3.1,16.4-9.3,22.6C134.2,111.8,126.8,114.9,117.9,114.9z M117.9,74.9
			c-1.8,0-3.2,0.6-4.4,1.8s-1.7,2.8-1.7,4.6c0,1.8,0.6,3.4,1.7,4.6c1.1,1.3,2.7,1.8,4.4,1.8c1.8,0,3.2-0.6,4.4-1.8
			c1.1-1.3,1.7-2.8,1.7-4.6c0-1.8-0.6-3.4-1.7-4.6C121.2,75.6,119.8,74.9,117.9,74.9z"/>
		<path class="st11" d="M224.9,114.5h-20.8L191,94.9v19h-27.2V52.1h19.5L197.7,73V52.3h27.4v62.2H224.9z"/>
		<path class="st11" d="M261.7,113.9h-27.4l21.5-61.8h38.9l21.5,61.8H289l-3.5-10.4h-20.1L261.7,113.9z M270.3,88.9h10.1l-5.1-15.3
			L270.3,88.9z"/>
		<path class="st14" d="M326.4,52.3H365c7.9,0,13.9,1.5,18,4.6c4.1,3.1,6,7.3,6,12.6c0,5.8-2.7,10.2-8,13.3c3.2,1.7,5.6,3.7,7.3,5.9
			c1.7,2.2,2.5,5.1,2.5,8.3c0,5.2-1.8,9.3-5.6,12.4c-3.7,3.1-8.8,4.6-15.6,4.6h-43.1L326.4,52.3L326.4,52.3z M353.8,64.6v12.1h0.7
			c2.9,0,5.1-0.4,6.3-1.4c1.3-1,1.8-2.5,1.8-4.6c0-3.9-2.4-6-7.2-6L353.8,64.6L353.8,64.6z M353.8,86.9v13.3h0.8
			c3.1,0,5.3-0.4,6.7-1.4c1.4-1,2-2.7,2-4.9c0-4.6-2.5-7-7.6-7H353.8z"/>
		<path class="st14" d="M454.6,98.4v15.4h-51.2V52.1h51.2v15.4h-24v7.6h16.7v15.4h-16.7v7.6L454.6,98.4L454.6,98.4z"/>
		<path class="st14" d="M462.5,79.5V52.3h54.9v27.4h-13.8V114h-27.4V79.5H462.5z"/>
	</g>
</g>
</svg>
