<?xml version="1.0" encoding="utf-8"?>
<!-- Generator: Adobe Illustrator 23.0.0, SVG Export Plug-In . SVG Version: 6.00 Build 0)  -->
<svg version="1.1" id="Capa_1" xmlns="http://www.w3.org/2000/svg" xmlns:xlink="http://www.w3.org/1999/xlink" x="0px" y="0px"
	 viewBox="0 0 684 162.8" style="enable-background:new 0 0 684 162.8;" xml:space="preserve">
<style type="text/css">
	.st0{display:none;}
	.st1{display:inline;fill:#00205D;}
	.st2{display:inline;}
	.st3{fill:none;stroke:#FFFFFF;stroke-width:9;stroke-miterlimit:10;stroke-dasharray:54.3577,54.3577;}
	.st4{display:inline;fill:none;stroke:#FFFFFF;stroke-miterlimit:10;}
	.st5{display:inline;stroke:#FFFFFF;stroke-miterlimit:10;}
	.st6{display:inline;fill:#FFFFFF;}
	.st7{fill:#00205D;}
	.st8{fill:none;stroke:#FFFFFF;stroke-miterlimit:10;stroke-dasharray:6.7848,6.7848;}
	.st9{enable-background:new    ;}
	.st10{fill:#FF073E;}
	.st11{fill:#FFFFFF;}
	.st12{fill:none;stroke:#FFFFFF;stroke-width:0.25;stroke-miterlimit:10;}
	.st13{stroke:#FFFFFF;stroke-width:0.25;stroke-miterlimit:10;}
	.st14{fill-rule:evenodd;clip-rule:evenodd;fill:#000406;stroke:#DB812D;stroke-width:4;stroke-miterlimit:22.9256;}
	.st15{fill-rule:evenodd;clip-rule:evenodd;fill:#000406;stroke:#D48931;stroke-width:4;stroke-miterlimit:22.9256;}
	.st16{fill-rule:evenodd;clip-rule:evenodd;fill:#FFFFFF;}
	.st17{fill-rule:evenodd;clip-rule:evenodd;fill:#000406;}
	.st18{fill-rule:evenodd;clip-rule:evenodd;fill:#D48931;}
	.st19{fill-rule:evenodd;clip-rule:evenodd;fill:#000406;stroke:#D48931;stroke-width:0.5669;stroke-miterlimit:22.9256;}
	.st20{clip-path:url(#SVGID_2_);}
	.st21{clip-path:url(#SVGID_4_);}
	.st22{clip-path:url(#SVGID_6_);}
	.st23{clip-path:url(#SVGID_8_);}
	.st24{clip-path:url(#SVGID_10_);}
	.st25{clip-path:url(#SVGID_12_);}
	.st26{clip-path:url(#SVGID_14_);}
	.st27{clip-path:url(#SVGID_16_);}
	.st28{clip-path:url(#SVGID_18_);}
	.st29{clip-path:url(#SVGID_20_);}
	.st30{clip-path:url(#SVGID_22_);}
	.st31{clip-path:url(#SVGID_24_);}
	.st32{clip-path:url(#SVGID_26_);}
	.st33{clip-path:url(#SVGID_28_);}
	.st34{clip-path:url(#SVGID_30_);}
	.st35{clip-path:url(#SVGID_32_);}
</style>
<g class="st0">
	<circle class="st1" cx="863.8" cy="666.3" r="229.4"/>
</g>
<g id="Capa_3" class="st0">
	<g class="st2">
		<ellipse class="st3" cx="865" cy="671.1" rx="155.7" ry="155.7"/>
	</g>
	
		<text transform="matrix(1 0 0 1 763.8121 634.9789)" style="display:inline;fill:#FF073E; font-family:'Montserrat-ExtraBold'; font-size:51.7982px;">GRUPO </text>
	
		<text transform="matrix(1 0 0 1 798.0262 758.826)" class="st6" style="font-family:'Montserrat-ExtraBold'; font-size:111.7586px;">91</text>
	<path class="st4" d="M825.9,448.3l8.4,34c0,0,1.3,11.5,14,11.5h33.4c0,0,9.4,1,15.3-9.7l6.6-30.4c0,0,2-6.1-6.4-8.9
		c0,0-12.3-6.1-60.3-1.5C837.1,443.2,828.5,443.7,825.9,448.3z"/>
	<path class="st4" d="M1033.4,524.8l-25.4,24.1c0,0-9.4,6.8-3.1,17.9l16.5,29.1c0,0,3.8,8.7,16,8.5l29.7-9.2c0,0,6.3-1.2,4.6-10
		c0,0-0.7-13.7-28.4-53.2C1043.4,532.1,1038.7,524.8,1033.4,524.8z"/>
	<path class="st4" d="M658.9,593l33.8,9.2c0,0,10.7,4.5,16.9-6.6l16.3-29.2c0,0,5.5-7.7-1-18.1l-23.3-20.6c0,0-4.4-4.8-10.9,1.2
		c0,0-11.3,7.7-30.7,51.8C659.9,580.7,656.1,588.5,658.9,593z"/>
	<path class="st4" d="M904,885.5l-8.4-34c0,0-1.3-11.5-14-11.5h-33.4c0,0-9.4-1-15.3,9.7l-6.6,30.4c0,0-2,6.1,6.4,8.9
		c0,0,12.3,6.1,60.3,1.5C892.8,890.7,901.5,890.1,904,885.5z"/>
	<path class="st4" d="M697.5,814l25.4-24.1c0,0,9.4-6.8,3.1-17.9l-16.5-29.1c0,0-3.8-8.7-16-8.5l-29.7,9.2c0,0-6.3,1.2-4.6,10
		c0,0,0.7,13.7,28.4,53.2C687.5,806.8,692.3,814.1,697.5,814z"/>
	<path class="st4" d="M1069,744.9l-33.8-9.2c0,0-10.7-4.5-16.9,6.6l-16.3,29.2c0,0-5.5,7.7,1,18.1l23.3,20.6c0,0,4.4,4.8,10.9-1.2
		c0,0,11.3-7.7,30.7-51.8C1068,757.2,1071.8,749.3,1069,744.9z"/>
	<rect x="654.1" y="650" class="st5" width="38.9" height="38.9"/>
	<rect x="751" y="820.5" transform="matrix(0.5 -0.866 0.866 0.5 -342.2361 1087.1836)" class="st5" width="38.9" height="38.9"/>
	<rect x="940.7" y="820.5" transform="matrix(0.866 -0.5 0.5 0.866 -291.3676 592.6063)" class="st5" width="38.9" height="38.9"/>
	<rect x="751.7" y="479.8" transform="matrix(0.866 -0.5 0.5 0.866 -146.3234 452.4554)" class="st5" width="38.9" height="38.9"/>
	<rect x="941.3" y="479.9" transform="matrix(0.5 -0.866 0.866 0.5 47.9352 1081.6805)" class="st5" width="38.9" height="38.9"/>
	<rect x="1038.4" y="650" class="st5" width="38.9" height="38.9"/>
	<circle class="st6" cx="661.8" cy="657.9" r="2.7"/>
	<circle class="st6" cx="684.4" cy="681.1" r="2.7"/>
	<circle class="st6" cx="766.5" cy="824.4" r="2.7"/>
	<circle class="st6" cx="769.7" cy="838.9" r="2.7"/>
	<circle class="st6" cx="964.6" cy="825.2" r="2.7"/>
	<circle class="st6" cx="957.4" cy="853.8" r="2.7"/>
	<circle class="st6" cx="773.8" cy="855" r="2.7"/>
	<circle class="st6" cx="1046.4" cy="679" r="2.7"/>
	<circle class="st6" cx="1058.5" cy="679" r="2.7"/>
	<circle class="st6" cx="1070" cy="679" r="2.7"/>
	<circle class="st6" cx="1046.4" cy="660.7" r="2.7"/>
	<circle class="st6" cx="1058.5" cy="660.7" r="2.7"/>
	<circle class="st6" cx="1070" cy="660.7" r="2.7"/>
	<circle class="st6" cx="948.2" cy="502.4" r="2.7"/>
	<circle class="st6" cx="771.1" cy="499.3" r="2.7"/>
	<circle class="st6" cx="964.4" cy="511.4" r="2.7"/>
	<circle class="st6" cx="957.7" cy="486.8" r="2.7"/>
	<circle class="st6" cx="974" cy="495.8" r="2.7"/>
</g>
<circle class="st7" cx="607.6" cy="82.1" r="65.4"/>
<g>
	<ellipse class="st8" cx="607.9" cy="83.5" rx="44.3" ry="44.3"/>
</g>
<g class="st9">
	<path class="st10" d="M587.1,67.7h2.6V72c-0.6,0.4-1.3,0.7-2,1c-0.8,0.2-1.5,0.3-2.3,0.3c-1.1,0-2.1-0.2-2.9-0.7
		c-0.9-0.5-1.5-1.1-2-1.9s-0.7-1.7-0.7-2.8c0-1,0.2-2,0.7-2.8c0.5-0.8,1.2-1.5,2.1-1.9s1.9-0.7,3-0.7c1,0,1.8,0.2,2.6,0.5
		c0.8,0.3,1.4,0.8,1.9,1.4l-1.9,1.7c-0.7-0.8-1.5-1.2-2.5-1.2c-0.9,0-1.6,0.3-2.1,0.8c-0.5,0.5-0.8,1.3-0.8,2.1
		c0,0.6,0.1,1.1,0.4,1.5s0.6,0.8,1,1c0.4,0.3,0.9,0.4,1.5,0.4c0.6,0,1.1-0.1,1.6-0.3V67.7z"/>
	<path class="st10" d="M596.1,70.4h-1.6v2.7h-2.9V62.8h4.7c0.9,0,1.7,0.2,2.4,0.5c0.7,0.3,1.2,0.8,1.6,1.3s0.6,1.3,0.6,2
		c0,0.7-0.2,1.4-0.5,2c-0.3,0.6-0.8,1-1.5,1.3l2.2,3.2H598L596.1,70.4z M597.5,65.5c-0.3-0.3-0.8-0.4-1.4-0.4h-1.6v3h1.6
		c0.6,0,1.1-0.1,1.4-0.4c0.3-0.3,0.5-0.6,0.5-1.1C597.9,66.1,597.8,65.8,597.5,65.5z"/>
	<path class="st10" d="M603.7,72.1c-0.9-0.8-1.3-2-1.3-3.6v-5.7h2.9v5.6c0,1.7,0.7,2.5,2,2.5c1.3,0,1.9-0.8,1.9-2.5v-5.6h2.9v5.7
		c0,1.5-0.4,2.7-1.3,3.6c-0.9,0.8-2,1.3-3.6,1.3S604.5,72.9,603.7,72.1z"/>
	<path class="st10" d="M621.3,63.3c0.7,0.3,1.2,0.8,1.6,1.3s0.6,1.3,0.6,2c0,0.8-0.2,1.5-0.6,2s-0.9,1-1.6,1.3
		c-0.7,0.3-1.5,0.5-2.4,0.5H617v2.7h-2.9V62.8h4.7C619.8,62.8,620.6,63,621.3,63.3z M620,67.7c0.3-0.3,0.5-0.6,0.5-1.1
		c0-0.5-0.2-0.9-0.5-1.1c-0.3-0.3-0.8-0.4-1.4-0.4H617v3h1.6C619.3,68.1,619.7,68,620,67.7z"/>
	<path class="st10" d="M627.3,72.6c-0.9-0.5-1.6-1.1-2.1-1.9s-0.7-1.7-0.7-2.8s0.2-1.9,0.7-2.8s1.2-1.5,2.1-1.9
		c0.9-0.5,1.9-0.7,2.9-0.7c1.1,0,2.1,0.2,2.9,0.7c0.9,0.5,1.6,1.1,2.1,1.9s0.7,1.7,0.7,2.8s-0.2,1.9-0.7,2.8s-1.2,1.5-2.1,1.9
		c-0.9,0.5-1.9,0.7-2.9,0.7C629.1,73.3,628.1,73.1,627.3,72.6z M631.6,70.6c0.4-0.2,0.8-0.6,1-1c0.2-0.4,0.4-1,0.4-1.5
		s-0.1-1.1-0.4-1.5c-0.2-0.4-0.6-0.8-1-1s-0.9-0.4-1.4-0.4c-0.5,0-1,0.1-1.4,0.4c-0.4,0.2-0.8,0.6-1,1c-0.2,0.4-0.4,1-0.4,1.5
		s0.1,1.1,0.4,1.5c0.2,0.4,0.6,0.8,1,1c0.4,0.2,0.9,0.4,1.4,0.4C630.7,70.9,631.2,70.8,631.6,70.6z"/>
</g>
<g class="st9">
	<path class="st11" d="M605.7,88.5c1.8,1.9,2.8,4.6,2.8,8.2c0,2.5-0.5,4.7-1.5,6.6c-1,1.8-2.4,3.2-4.2,4.2c-1.8,1-3.9,1.4-6.2,1.4
		c-1.3,0-2.5-0.1-3.6-0.4c-1.1-0.3-2.1-0.7-2.9-1.2l2.3-4.5c1.1,0.8,2.5,1.1,4.1,1.1c1.6,0,2.9-0.4,3.9-1.3c1-0.9,1.6-2.2,1.7-3.8
		c-1.3,1.1-2.9,1.6-5,1.6c-1.4,0-2.7-0.3-3.9-0.9c-1.2-0.6-2.1-1.4-2.8-2.5c-0.7-1.1-1-2.3-1-3.7c0-1.5,0.4-2.8,1.2-4s1.8-2,3.2-2.7
		c1.3-0.6,2.8-0.9,4.4-0.9C601.4,85.7,603.9,86.6,605.7,88.5z M600.8,95c0.6-0.5,0.9-1.2,0.9-2.1c0-0.8-0.3-1.5-0.8-2
		c-0.6-0.5-1.3-0.8-2.3-0.8c-0.9,0-1.6,0.3-2.2,0.8c-0.6,0.5-0.8,1.2-0.8,2.1c0,0.8,0.3,1.5,0.8,2c0.6,0.5,1.3,0.8,2.2,0.8
		C599.5,95.8,600.3,95.6,600.8,95z"/>
	<path class="st11" d="M620,86.1v22.3h-6.3V91h-4.1v-4.9H620z"/>
</g>
<path class="st12" d="M596.8,19.9l2.4,9.8c0,0,0.3,3.3,3.9,3.3h9.6c0,0,2.7,0.3,4.5-2.7l1.9-8.7c0,0,0.5-1.7-1.9-2.6
	c0,0-3.4-1.7-17.1-0.5C600.1,18.5,597.7,18.7,596.8,19.9z"/>
<path class="st12" d="M656.1,41.8l-7.2,6.8c0,0-2.7,1.9-0.9,5.1l4.6,8.2c0,0,1,2.6,4.6,2.4l8.4-2.6c0,0,1.9-0.3,1.4-2.9
	c0,0-0.2-3.9-8-15.2C658.8,43.9,657.6,41.7,656.1,41.8z"/>
<path class="st12" d="M549.2,61.2l9.6,2.6c0,0,3.1,1.2,4.8-1.9l4.6-8.4c0,0,1.5-2.2-0.3-5.1l-6.7-5.8c0,0-1.2-1.4-3.1,0.3
	c0,0-3.3,2.2-8.7,14.7C549.6,57.8,548.5,60,549.2,61.2z"/>
<path class="st12" d="M619.1,144.6l-2.4-9.8c0,0-0.3-3.3-3.9-3.3h-9.6c0,0-2.7-0.3-4.5,2.7l-1.9,8.7c0,0-0.5,1.7,1.9,2.6
	c0,0,3.4,1.7,17.1,0.5C616,146.1,618.4,145.9,619.1,144.6z"/>
<path class="st12" d="M560.3,124.2l7.2-6.8c0,0,2.7-1.9,0.9-5.1l-4.6-8.2c0,0-1-2.6-4.6-2.4l-8.4,2.6c0,0-1.9,0.3-1.4,2.9
	c0,0,0.2,3.9,8,15.2C557.4,122.1,558.8,124.2,560.3,124.2z"/>
<path class="st12" d="M666.2,104.5l-9.6-2.6c0,0-3.1-1.2-4.8,1.9l-4.6,8.4c0,0-1.5,2.2,0.3,5.1l6.7,5.8c0,0,1.2,1.4,3.1-0.3
	c0,0,3.3-2.2,8.7-14.7C665.8,107.9,667,105.7,666.2,104.5z"/>
<rect x="547.8" y="77.4" class="st13" width="11.1" height="11.1"/>
<rect x="575.5" y="126.1" transform="matrix(0.5 -0.866 0.866 0.5 176.52 569.0626)" class="st13" width="11.1" height="11.1"/>
<rect x="629.6" y="125.9" transform="matrix(0.866 -0.5 0.5 0.866 19.3475 335.1907)" class="st13" width="11.1" height="11.1"/>
<rect x="575.8" y="28.9" transform="matrix(0.866 -0.5 0.5 0.866 60.6315 295.2997)" class="st13" width="11.1" height="11.1"/>
<rect x="629.7" y="28.8" transform="matrix(0.5 -0.866 0.866 0.5 287.8932 567.3492)" class="st13" width="11.1" height="11.1"/>
<rect x="657.4" y="77.4" class="st13" width="11.1" height="11.1"/>
<circle class="st11" cx="556.6" cy="86.3" r="0.7"/>
<circle class="st11" cx="550.4" cy="79.8" r="0.7"/>
<circle class="st11" cx="579.9" cy="127.1" r="0.7"/>
<circle class="st11" cx="580.9" cy="131.2" r="0.7"/>
<circle class="st11" cx="636.4" cy="127.4" r="0.7"/>
<circle class="st11" cx="634.3" cy="135.5" r="0.7"/>
<circle class="st11" cx="582.1" cy="135.8" r="0.7"/>
<circle class="st11" cx="659.6" cy="85.7" r="0.7"/>
<circle class="st11" cx="663.2" cy="85.7" r="0.7"/>
<circle class="st11" cx="666.5" cy="85.7" r="0.7"/>
<circle class="st11" cx="659.6" cy="80.5" r="0.7"/>
<circle class="st11" cx="663.2" cy="80.5" r="0.7"/>
<circle class="st11" cx="666.5" cy="80.5" r="0.7"/>
<circle class="st11" cx="631.7" cy="35.3" r="0.7"/>
<circle class="st11" cx="581.2" cy="34.5" r="0.7"/>
<circle class="st11" cx="636.4" cy="37.9" r="0.7"/>
<circle class="st11" cx="634.5" cy="30.9" r="0.7"/>
<circle class="st11" cx="639.1" cy="33.4" r="0.7"/>
<g>
	<path class="st14" d="M90.3,71c0,4.8-0.3,10.5-2.1,14c-0.8-0.1-1.7-0.5-2.5-0.4c-1.1,0.1-3,1.5-6.4-0.5c-1-0.6-2.1-1.5-3.4-1.6
		l4.4,3.7c1.4,0.9,3.6,1.6,4.1,4c-2.3,0-4.3-0.4-6.2-1.5c-2.6-1.5-2.8-2-4.7-3.2c0.2,2.4,4.9,7.7,8.3,7.7c0,1.3,0.4,2.1,0.4,3.3
		c0,0.4-0.5,1.1-0.6,1.5c-0.2,0.5-0.3,1.1-0.4,1.7c-0.7,3.4,0.8,9.3-9.7,11.1c-2.2,0.4-5.6,0.5-6.6,1.8c1.6,0,9.4-1.5,11.5-1.7
		c-0.7,0.9-3.3,2.2-4.7,2.6c-2.2,0.7-3.7,0.7-6.6,0.7c0.3,0.5,0.4,0.5,0.8,0.9l2.6,3.1l2.9-1.2c1.2-0.8-0.5-0.8,3.1-1.3
		c0.8-0.1,2.6-0.6,3.5-0.9c1.9-0.7,3.1-2.8,4.1-4.4c1.1-1.9,0.8-2.4,6.4-1.9c1.2,0.1,3.1,0.7,3.8-0.2c-1.1-0.1-2.6-0.5-3.8-0.7
		l-3.7-0.9c0.1-2.7,4.2-1.7,6.5-1.7c-0.7-0.6-0.4-0.3-1.4-0.5c-3.6-0.5-4.4,0-4.4-2.2c0-1,1.3-0.8,2.1-0.8c1.6,0,1.3,1.3,4.6,1.3
		c1.6,0,3.6-1.3,4-2.5c-3.1,0-8-3.6-10.8-2.3c0.5-1.8,3.8-4.3,4.5-6.1c0.5-1.2,0.1-1.7,0.1-3.1c0-0.5,1.5-0.5,1.9-2.5
		c0.3-1.4,0.2-2.7,0.6-4c0.2-0.6,0.4-0.9,0.7-1.4c2.4-5.4,0.7-12.9-2.1-16c-0.4-0.5-1.1-1.6-1.7-1.7C87.6,62.8,90.3,65.3,90.3,71z"
		/>
	<path class="st14" d="M24.4,99.6c0.5-2.3,2-2.5-0.6-5.1c-7.7-7.6-5.2-15.1-3.3-26.3c1.2-7.2,1.3-5.9,5.2-9.8
		c0.7-0.7,1.3-1.2,1.8-1.9c-1.1,0.1-3.6,1.9-4.9,2.4c-0.6,0.3-1.2,0.4-1.8,0.7c-0.5,0.2-1,0.4-1.6,0.7c-1.1,0.6-1.9,1.4-2.7,2.3
		c-3.9,4.8-1.7,12.2-3.8,15.7c-0.4,0.6-0.7,0.9-1.1,1.4l3.2,8.4c0.4,1.6,0.7,3.2,1.1,4.7c0.4,1.7,0.9,2.8,1.4,4.5
		c0.6,2.2,2.4,7,4.3,7.4c2.8,0.6,6-3.5,7.7-3.9c-0.1,1.5-1.8,2.7-2.8,3.5c-0.9,0.7-3.2,2.1-3.5,2.8c0.9-0.4,2.2-0.9,3.1-1.2
		c1.9-0.7,8.3-3.2,9.1-4.4c-0.7-0.3-0.9-0.2-1.9-0.2c-0.1-0.6-0.3-0.7,0.3-1.2c1.4-1.3,1.8-0.5,3.3,0.7c1.9,1.5,4.3,3.5,7.1,3.6
		c-0.5-0.7-2.4-1.9-3.3-2.6c-0.8-0.6-3-2.1-3.4-2.6c2.3-1.5,2.9,0.2,5.2,0.4l-0.8-0.6c-2-1.2-2.9-2.4-4.2-1.7c0,0-0.9,0.7-1,0.7
		c-0.6,0.5-0.9,1.2-1.8,1.1c-0.2,0-0.8-0.3-1.1-0.3C29.1,97.4,26.3,99.4,24.4,99.6z"/>
	<path class="st14" d="M40.5,69.8c0,0.6,0.7,1,1.3,1c0.8,0,1.3-0.9,1.9-1.3c2.9,4.4-5.3,4.1-5.4-0.2c0-0.8,1.2-2,2.1-1.3
		C41.3,68.9,40.5,69.2,40.5,69.8L40.5,69.8z M33.8,67.9c1.9,0.4,2.6,0.5,3.6,2.6c0.8,1.6,1,2.7,2.8,3.5c3.9,1.7,3.6-1.7,3.6,8.9
		c0.8-0.3,1.2-1.9,1.5-2.6c1.8-4.3,3.1-3.5,0.4-8.9c-3.1-6.2-4.7-3.9-12.1-3.9v-2.9c2.8,0,4.3-0.7,6.2-0.2c1.6,0.4,3.2,1.5,4.6,2.3
		c-0.2-0.6-3.8-4.4-5.1-5.1c-0.9-0.4-2.9-1.1-3.9-0.5c-1.1,0.7-0.5,1.9-2.2,3c0-4.2,1.9-9.4,3.7-13c0.4-0.7,0.6-1.1,0.9-1.8
		c0.3-0.5,0.9-1.4,1-1.9c-2.2,0.2-3.1,1.5-4.6,3.3c-2.7,3.4-4.4,5.8-6.8,9c-2.1,2.7-5,4.4-5.6,10.2c-0.2,2.1,0.6,5.2,1,6.9
		c0.4,2.1,0.9,4.4,1.7,6.3c1.6,3.9,2.1,3.4,3.2,4.9c-1.5,1-2.8,0.6-5.4,1.3v0.4c0.8,0.2,5.1,2.5,6.5,3.3c0.9,0.5,1.1,0.9,2.4,0.9
		c-0.5-0.8-1.2-1.1-2.1-2.7c2.4-3.6,6.5-2.5,9.2-6.5c-1,0.1-3.4,0.9-4.4,1.2c-5,1.5-7,0.8-8.3-7.2c-0.6-3.6-0.5-6.9,0.2-10.3
		c1.1-5.3,3.3-6.7,3.6-7.9c1.7,0.5,1.8,3.7,1.6,5.1c-1.4,7.5-0.9,6.2,4.3,8.2c0.9,0.3,1.7,0.6,2.6,0.9c1.3,0.4,1.3,0.5,3,0.5
		c-0.3-0.2-0.1-0.1-0.5-0.3c-2-1.2-1.2-0.4-3.8-2.4C35.4,71.9,33.9,69.5,33.8,67.9z"/>
	<path class="st15" d="M99,67.5c0.2,3.3,3.1,5.4,3.3,12.7c0,1,0.2,1.2,0.2,2.3c0,1.8-0.3,6.9-0.7,8.7c-0.4,1.8-1,3.4-2.1,4.8
		c-1.1,1.5-1,0.9-1,2.6c0,0.8,1.5,4.3-0.2,10c-1,3.3-2.4,4-2.5,5.4l3.1-3.4c4.2-5.2,5.8-5.8,6.7-13.1c0.2-1.4,0.3-2.4,0.6-3.8
		c1.3-6.6-0.4-10.5-1.5-16.9c-0.2-1.5-0.2-1.9-0.7-3c-0.6-1.4-3.8-6.3-4.6-6.9L99,67.5z"/>
	<path class="st14" d="M96.9,82.1c0,11.1-7.9,11.6-9.8,14.4c4.8,0,9.1,2.1,12.3-4.4c0.5-0.9,0.9-2.1,1-3.3c0.4-3.7,0.2-1.3,0-3.9
		c-0.1-1.4,0.1-3,0-4.4c-0.1-1.1-0.3-2.9-0.4-4c-0.4-4.5-2.2-9.5-4-13.5c-0.8-1.8-1.8-4.3-3.1-5.7c-0.8-0.9-3.9-4.1-4.6-4.3
		c-0.5,1,2.2,5.1,2.8,6.1l1.8,3c0.5,1,1.1,2.1,1.5,3.3C96.1,70,96.9,75.9,96.9,82.1z"/>
	<path class="st14" d="M57.6,102.9c2.2-0.5,4.3-3.1,5.6-1c-0.5,0.6-1.6,0.6-3.4,2c-1.4,1.1-1.4,1.7-1.8,3.6c-5,0.1-3.1-0.3-4.6-2.5
		c-1.2-1.7-2.4-2.1-3.8-3l-0.5-0.3c2.1-0.5,2.2,0.1,4,0.2c-1-1.5-3.8-2.2-4.9-2.6c-2.6-1-0.9-3.2-0.9-5.5h-0.6
		c-0.1,1.4-0.9,2.3-1.2,3.6c-0.4,1.7,0.4,2.7,1,3.7c1.9,3.2,3.4,2.6,5,4.6l2.2,2.6c2.7,2.8,2.4,2.8-0.9,5.3c-1,0.7-2.1,1.3-2.4,2.6
		c7-3.7,9.4,0.4,12.3,1c-0.4-1.4-4.6-4.4-5.1-5.3c-1.4-2.3,1.6-3,3.9-5.9c2.3-2.9,3.5-2.5,5.1-5.3c1.3-2.3,1.5-6.5-1.4-7.2
		c1.5,2.7,2.7,4.6-0.9,6.2C62.6,100.2,59.8,99.6,57.6,102.9z"/>
	<path class="st14" d="M82.5,66.2c-1.8-0.1-5.5-1.6-6.9-1.7c0.9,0.8,2.5,1.7,3.6,2.2c2.5,1.3,3.1,0.9,4.4,1.5c3.7,1.5,3,5.7,4.7,6.9
		c0-7.8-3.9-12.2-4-15.8c3.7,1.8,3.5,1.7,3.7,0c0.3-2.9-2.5-6.9-4.6-8.6c-1.1-0.9-2.8-2-4.5-2.2c0.6,1.3,3.1,7.2,3.1,7.9
		c0.2,2.4-0.8,0.7-0.2,4.8C82.2,62.8,82.5,64.6,82.5,66.2z"/>
	<path class="st14" d="M72.3,75c0.3,1,1.5,1.3,1.5,2.5c0,0.7-2.1,2.1-2.7,2.9c1,2,1.4,2.6,3,4.1c1,1.1,2.7,2.3,4.7,2.3
		c-1.2-1.8-3.9-2.9-5-5.6c-0.2-0.5-0.2-0.8-0.4-1.3c1.5,0.3,3.1,1.7,4.6,2.1c-0.2-0.7-0.3-0.5-0.8-1.1c-0.3-0.3-0.7-0.9-0.9-1.2
		c0.7,0.1,1,0.4,1.6-0.1c0.8-0.9-0.7-0.4,0.8-1c3-1.2,7.8-1.6,7.8-5.7c0-1-0.7-2.3-1.3-2.7c-0.2,0.7-0.8,1.4-1.2,1.9
		c-0.2,0.3-0.4,0.5-0.7,0.8l-0.3,0.3c-3.1,3.1-4.6,2.9-7.4,2.2c0.3-0.3,0.1-0.1,0.5-0.3l5.7-3.4c1.5-1,1.7-2.7,0.7-2.7
		c-2.1,0-1.6,0.5-2.9,1.5C78.6,71.1,73.2,74.8,72.3,75z"/>
	<path class="st14" d="M72.3,71.9c-0.7,0-2.5-0.7-2.5-1.3c0-0.8,0.3-1,0.6-1.5c1.2,0.3,1.2,1,2.7,1c1.1,0,0.8-1.6,1-2.7
		C78.2,67.8,74.6,71.9,72.3,71.9L72.3,71.9z M64.2,78.3c0,3.1,0.8,5,2.5,6.9c2.5,2.7,1.9,2.6,2.8,6.2c0.9-0.3,1.9-2.5,1.9-2.9
		c0-2.8-4.4-3.2-4.4-8.5c0-1.9,0.4-3.6,1.5-4.4c1.3,1,1.2,4.5,1.3,5.8c0.1,1.9,0.3,1.6,0.6,1.9c0.1-0.8,0.2-0.5,0.2-1.9
		c0-2.4-1.1-6.9,2.2-8c2.2-0.7,3.5-1.5,4.6-3.5c0.4-0.8,0.5-1,1.1-1.6c1.2,0.1,0.9,0.5,2.1,0.6c-1.8-2.5-9-3.5-11.2,0.3
		c-0.5,1-0.3,1.2-0.6,2.3C67.8,74.8,64.2,75.1,64.2,78.3z"/>
	<path class="st14" d="M31.5,34c0,1.2,0.5,1.9,0.4,3.1c-0.3,2.7-2.9,5.6-4.7,6.4c-3.4,1.5-4.2-1.9-4.4-2.2c-0.5-0.8-1.3-1.1-2.3-1.5
		c-0.8-0.3-2.2-0.8-3-0.8c0.5,1.1,1.4,7.3,2.3,9.1c0.6,1.2,2.4,2,3.8,1c2.3-1.7,1.5-3.6,5.4-6.2c1.7-1.1,6.1-3.1,5.4-6.1
		C34.2,35.5,32.7,34.2,31.5,34z"/>
	<path class="st14" d="M89.2,43.7L89,45.4c-2.5,1.2-3.6-0.9-5-1.9c0,3.9,4.6,7.5,7.1,9.2c-0.1-0.6-0.2-1-0.4-1.5
		c2.9,0,5.1,0.5,5.6-1.9c-0.6-1.2-1.2-1.6-2.3-2.3c0.4-1.8,0.7-2.9-1.5-4.6C90.1,40.8,90,41.1,88,40C88.1,41.4,89.2,42,89.2,43.7z"
		/>
	<path class="st14" d="M61.1,58.5l0.2,0.4L61.1,58.5z M61.1,58.5L61.1,58.5L61.1,58.5z M61.3,59c0.6,0.4,2.2,2.8,2.8,3.6
		c0.3,0.4,0.4,0.5,0.7,0.9c0.8,1,1.3,1.9,3.1,1.9c-0.7-2.5-4.9-3.8-4.1-9.5c0.6-4.1-2.5-0.1-4.9-5c-0.3-0.7-0.9-1.8-1-2.6h-0.4
		c0,4.4,1.4,10,3.4,13.7c5.3,9.8,2.1,10.9,3.3,13.4c0.6-0.4,0.7-2.2,1-3.4c0.2-1.1,0.7-2.8,0.7-3.9c-1.5,0.3-1.1-0.5-2.6-4.1
		C62.7,62.5,61.7,60.5,61.3,59z"/>
	<path class="st14" d="M32.8,112.7c0.4,0.6,1.9,1.5,2.5,2.1c0.9,0.7,1.6,1.3,2.6,1.9c1.4,0.9,4.3,2.7,6.5,2.7l4.7-3.6
		c0.6-0.5,1.1-0.8,1.5-1.4c-0.9,0.1-1.5,0.3-2.5,0.4c-1.1,0.1-1.7,0.1-2.9,0.2c-3,0.2-2.4,0.4-4.5-1.1c-1.1-0.8-2.3-1.9-3.7-2.3
		c-1-0.3-1.3-0.3-2.3,0.1C34,111.8,33.2,112.1,32.8,112.7z"/>
	<path class="st14" d="M39.2,51.7c1.4-0.1,3.3-1.5,4.9-2c4.6-1.5,11.2-0.8,13.4-4.3c1.2-1.9,0.8-3.1,0.4-4.8
		c-1.6,0.4-2.2,4.3-9.5,5.3C44.8,46.4,41,49,39.2,51.7z"/>
	<path class="st14" d="M47.1,63.1c0,1.5,0.5,1.5,0.8,2.9c-1.3,0.3-0.6,0-1.9,0c0.4,1.3,2.9,2.4,2.9,5.6c0,1.3-0.2,1.5-0.2,2.7
		c0.9-0.3,1.9-1.6,1.9-1.9c0-2.1-1.1-0.2-1.7-5.6c-0.2-1.7-1.2-4.4,2.6-4.4c1.5,0,0.6,3,0.6,4.4c0.7-0.5,0.8-1.5,1.2-2.3
		c1.3-2.5,2.7-5.5,2.7-8.5c-0.9,0.2-1.4,0.8-2.5,1.5C51.8,58.8,47.1,61.4,47.1,63.1z"/>
	<path class="st14" d="M73.2,44L73.2,44L73.2,44z M76.1,48.1c-0.2-0.7-0.2-0.5-0.6-1c-0.3-0.4-0.5-0.7-0.8-1.1
		c-0.4-0.6-1.3-1.4-1.5-2.1c1.2,0.1,8.5,4.7,9.8,5.4c-0.2-0.6-0.4-0.9-0.8-1.3c-4.3-5.2-5.6-3.4-12.4-7.4c-0.4-0.3-0.9-0.5-1.3-0.8
		c-0.5-0.4-0.6-0.6-1.3-1c-2.3-1.5-3.7-2.5-6.4-2.5c0.8,1.2,2.8,3.2,4.4,3.5c-0.3-0.5-0.5-0.9-0.6-1.5c2,0.5,1.2,2.6,5.1,5.5
		L76.1,48.1z"/>
	<path class="st14" d="M35.9,82.1c1.5,0,2.9-0.3,3.5-1.3c-0.9-0.1-2.2-0.7-2.8-1.1c-0.8-0.6-1.5-1.4-0.9-2.6c-1.7,0-3.1-0.2-4-1
		c-0.7-0.7-1.7-2-1.8-3.2c-2.2,1.5-1.2,4.3-0.3,6.4c0.5,1.3,1.4,1.6,2.9,1.7C34.3,81.3,34.4,82.1,35.9,82.1z"/>
	<path class="st14" d="M69,55c-2,0-1-0.3-2.3-0.4c0.6,1.1,1,2.3,1.7,3.4c1.1,1.8,1.9,2,1.9,3.9c0,0.6-0.8,0.8-0.8,2.3
		c1.1-0.6,3.3-2.5,4.2-3.1c-0.5-1-0.4-1.6-1.4-2.2c-0.8-0.5-1.6-0.6-2.4-1.2c1.9-2.6,4.7,0.4,5,0.6c0-1.7-0.6-3.6-0.6-5.2
		C72,53.1,70.4,55,69,55z"/>
	<path class="st14" d="M44,55.6c-1.8,0-4.6-3.3-5.3,2.8c-0.1,1.1,0.1,0.6,0.1,1.8c1.4-0.1,1.9-2.5,2.7-2.5c1.1,0,1.3,0.8,2.1,1.3
		c1.7-1.2,0.1-3.2,4.9-4.9c1.1-0.4,2.6-0.8,3.4-1.4c0.4-0.4,0.8-0.8,1.3-1.2c0.5-0.5,0.9-0.7,1.1-1.4c-2.6,0.6-1.4,2.3-5.6,2.3
		c-1.6,0-2.4-0.2-3.2,0.8C45,53.6,44.5,55.6,44,55.6z"/>
	<path class="st14" d="M60.3,46.7c4.6,0,2.8-1.3,8.1,1.3c1.2,0.6,2,1.1,3.1,1.7c0.9,0.5,2.5,1.4,3.4,1.6c0-3.4-2.1-4-6.3-5.2
		c-2-0.6-7.6-2.3-9.3-2.3c-0.1,0.8-0.2,1-0.1,1.7C59.3,46.1,59.6,46.7,60.3,46.7z"/>
	<path class="st14" d="M56.9,69.2c0-3,0.4-5.6,0.4-8.7c1.3,0.9,3.9,8.4,5.4,9.4c-0.1-0.8-2.5-6.8-2.9-7.9l-2.6-7
		c-0.3-0.9,0.1-0.4-0.6-0.9c0,5.6-1.5,10.2-0.7,13.8c0,0.2,0.2,0.8,0.3,0.8C56.6,69.2,56.3,69,56.9,69.2z"/>
	<path class="st14" d="M75.1,62.5c0.9,0,2.8,0.7,3.6,1c1.1,0.4,3.3,1.4,3.3,0.7c0-2.9-4.9-4.4-5.4-4.4c-0.9,0-3,2-3.6,2.7
		c-1,1.1-1.7,2.4-2.7,3.5c-2,2.2,0.2,1.3,1.8-0.3C72.4,65.2,74.7,62.5,75.1,62.5z"/>
	<path class="st14" d="M70.5,98.1c0.8,0,2,0.4,2.7,0.4c2.3,0,3.1-1.5,4.1,1.7c0.3,0.9,0.6,1.5,0.9,2.5h0.4c0-1.1,0-2.2,0-3.3
		c0-0.5,0-1.2,0-1.7c0-0.8,0.1-0.9-0.6-1c-1.2-0.2-1.9,0.2-3-0.3c-1-0.5-1.1-1.2-1.8-1.7c-0.6,0.8-0.8,1-1.4,1.7
		c-0.3,0.4-0.3,0.4-0.6,0.8C70.6,97.7,70.7,97.3,70.5,98.1z"/>
	<path class="st14" d="M49,109.4v-0.4c-0.8-0.1-2.8-1-3.7-1.3c-1.2-0.5-2.7-1-3.9-1.3c-1.5-0.4-2.4-0.6-3.2-1.8
		c-0.3-0.5-0.6-1.1-1-1.5l-1.4-1.3c0,1,0.4,3.9,0.8,4.4c0.4,0.6,3.1,1.2,4,1.4c1.2,0.4,2.7,0.9,4,1.2c0.7,0.2,1.4,0.4,2.1,0.6
		C47.6,109.6,47.8,109.4,49,109.4z"/>
	<path class="st14" d="M32.8,46c1.9-1,3.7-1.9,5.7-2.8c1-0.5,1.8-0.9,2.8-1.4l2.8-1.6c-1.1,0-2.4,0.5-3.3,0.9
		c-3.2,1.1-4.8,0.1-6.4,2.1C33.8,43.8,32.9,45.1,32.8,46z"/>
	<path class="st14" d="M49,59.6c3.2-1.7,7.6-7.1,7.7-10.2c-1.4,1.6-0.3,1-4.1,4.8C51.5,55.3,49.2,57.7,49,59.6z"/>
	<path class="st14" d="M26.1,108.7c1.6-0.4,4.5-1.9,6.9-2.7c2.5-0.8,1.7-1.9,1.6-2.7C33.3,103.4,26.5,107.2,26.1,108.7z"/>
	<path class="st14" d="M31.3,94.1c3.3,0,8-3.2,8.3-6.9L31.3,94.1z"/>
	<path class="st14" d="M64,108.7v0.4c1.3,0,1.5,0.2,2.7,0.2c4,0,10.3-1.8,12.5-5c-1,0.1-2.7,0.9-3.5,1.3c-2,1.1-3.7,2.8-6.9,2.9
		L64,108.7z"/>
	<path class="st14" d="M67.8,105.4c1.6-0.4,3.3-0.6,5-0.8c0.9-0.1,1.7-0.3,2.5-0.4c2.3-0.3,1.8,0,2.3-0.6c-0.5-0.2-2.7-0.4-3.5-0.4
		l0.2-1.2C73.5,102,68.2,104.7,67.8,105.4z"/>
	<path class="st14" d="M31.9,95.6V96c1.2,0.3,0.8,0.8,2.9,0.8c1.8,0,2.1-0.9,2.7-2.1C35.8,94.8,33.7,95.6,31.9,95.6z"/>
	<path class="st14" d="M31.3,111.8c2.1-0.2,4.6-1.5,4.8-3.5L31.3,111.8z"/>
	<polygon class="st14" points="62.6,117.1 62.6,117.3 62.8,117.1 	"/>
	<polygon class="st14" points="31.5,34 31.5,33.8 31.3,33.9 	"/>
	<polygon class="st14" points="76.1,48.1 76.1,48.3 76.3,48.2 	"/>
	<polygon class="st14" points="57.6,102.9 57.3,102.9 57.5,103.1 	"/>
	<path class="st16" d="M19.8,52c0,4.1-3.6,5.7-4.4,8.5c1.8-1.2,6-4.8,7.3-6.3c1.2-1.5,2.5-3.1,2.9-5.2c-1.3,0.9-2.3,3.4-3.8,3.8
		c-0.6-1.3-0.8-2.6-1.7-3.9c-1.2-1.6-3-2.5-4.3-4.1c-0.5-0.6-0.8-1-1.2-1.7c-1.3-2-2.1-7.9-0.4-10.1c0.6-0.7,2-0.9,3.2-0.9h11.9
		c3.1,0,4.3,1.9,6.4,3.4c1.9,1.4,3.1,2-1.3,4.6c-1.1,0.7-3,1.5-3.4,2.8c4.3-2.3,14.6-7.7,20.6-7.7l4,0.6c-3,0.3-8.8,3.3-11.3,5.1
		c-2.9,2.2-2.8,3-5.1,3.2c-2.4,0.2-3.7,1.5-5.3,3c-1.8,1.8-3.9,3.6-5.2,5.9c2.2-0.6,4.6-3.3,6.3-4.7c0.5-0.4,0.7-0.6,1.2-1l2.7-1.9
		c2.2,1.4,1.2,0.4,5-1.9c1.2-0.7,3.2-1.6,4.6-2c3.4-1,7-0.8,8-1.8c2.5-2.3,3.6-0.6,6.2,1c0.7,0.4,1.2,0.7,2,1.1
		c2.2,0.9,2,0.2,0.7-0.9c-1.8-1.6-4.3-4-6.6-4.6V36c5.7,0,3.6-1.2,11.8,1.6c5.4,1.8,6.1,0.9,10.1,5.9c0.6,0.7,2.3,2.9,3.1,3.2
		c-0.5-2.1-3.5-6.4-4-8.5c0.9-1.3,3.5-2,5-2.7c6.2-3,6.4-2.5,12.6,0.1c2.2,0.9,4,1.7,4,4.5c0,2.8-1.5,5.9-2.7,7.5
		c-2.7,3.6-6.4,6.2-2.3,9.4l3.5,3c1.1,1,2.4,2.3,3.6,3.1c-0.9-3.9-8.2-6.2-5.3-12.2c2.8-5.5,14.9-14.4-1.2-18.2
		c-2.8-0.7-5.8-0.8-8.7-0.2c-5.2,1.1-9.3,4.2-10.6,4.2c-0.3,0-2.3-1.9-3.4-2.4c-1.4-0.7-2.9-1.1-4.3-1.7c-2.9-1.3-6.3-2.1-9.8-2.1
		c-6.6,0-3.1-0.7-10.7,0.7c-1.7,0.3-3.2,0.7-4.6,1.2c-1.4,0.5-2.9,1-4,2c1.7-0.1,3.4-1,5.1-1.3c1.9-0.4,3.2,0.9,7.2-0.7
		c4.8-2,8.4,0.4,12.6,2.2l0.4,0.2c0,0,0.1,0,0.1,0.1c-1.5,0-2.3-0.2-3.5-0.2c-1.3,0-2.7,0-4,0c-5.6,0-4.3-1.1-12.3-0.2
		c-3.1,0.3-6.5,1.3-9.4-0.4c-2.7-1.6-4.8-3.8-10.4-3.8c-3.2,0-6.2,0.4-9.2,1c-4.1,0.8-7.3,1.6-6.3,7.2c0.7,3.7,2.2,6.8,4.6,9.1
		c0.6,0.6,1,0.8,1.6,1.3C18.3,49.3,19.8,50.8,19.8,52z"/>
	<path class="st17" d="M90.2,71c0,4.8-0.3,10.5-2.1,14c-0.8-0.1-1.7-0.5-2.5-0.4c-1.1,0.1-3,1.5-6.4-0.5c-1-0.6-2.1-1.5-3.4-1.6
		l4.4,3.7c1.4,0.9,3.6,1.6,4.1,4c-2.3,0-4.3-0.4-6.2-1.5c-2.6-1.5-2.8-2-4.7-3.2c0.2,2.4,4.9,7.7,8.3,7.7c0,1.3,0.4,2.1,0.4,3.3
		c0,0.4-0.5,1.1-0.6,1.5c-0.2,0.5-0.3,1.1-0.4,1.7c-0.7,3.4,0.8,9.3-9.7,11.1c-2.2,0.4-5.6,0.5-6.6,1.8c1.6,0,9.4-1.5,11.5-1.7
		c-0.7,0.9-3.3,2.2-4.7,2.6c-2.2,0.7-3.7,0.7-6.6,0.7c0.3,0.5,0.4,0.5,0.8,0.9l2.6,3.1l2.9-1.2c1.2-0.8-0.5-0.8,3.1-1.3
		c0.8-0.1,2.6-0.6,3.5-0.9c1.9-0.7,3.1-2.8,4.1-4.4c1.1-1.9,0.8-2.4,6.4-1.9c1.2,0.1,3.1,0.7,3.8-0.2c-1.1-0.1-2.6-0.5-3.8-0.7
		l-3.7-0.9c0.1-2.7,4.2-1.7,6.5-1.7c-0.7-0.6-0.4-0.3-1.4-0.5c-3.6-0.5-4.4,0-4.4-2.2c0-1,1.3-0.8,2.1-0.8c1.6,0,1.3,1.3,4.6,1.3
		c1.6,0,3.6-1.3,4-2.5c-3.1,0-8-3.6-10.8-2.3c0.5-1.8,3.8-4.3,4.5-6.1c0.5-1.2,0.1-1.7,0.1-3.1c0-0.5,1.5-0.5,1.9-2.5
		c0.3-1.4,0.2-2.7,0.6-4c0.2-0.6,0.4-0.9,0.7-1.4c2.4-5.4,0.7-12.9-2.1-16c-0.4-0.5-1.1-1.6-1.7-1.7C87.6,62.8,90.2,65.2,90.2,71z"
		/>
	<path class="st18" d="M5,88.1c-0.4-4.4-1.8-11.5,0.7-16.3c0.9-1.8-0.2-5,5.4-6.7c0.7-0.2,12.2-13.8,5-17.2
		c-3.1-1.4-9-12.2-4.2-16.6c3.6-3.3,16-3.1,20.1-0.7c2.6,1.5,7.9,3.4,10.5,1.9c5.2-3.1,14.1-2.9,19.9-2.9c3.7,0,3-0.3,6.8,0.8
		c3.6,1.1,6.2,2.7,9,5c1.1,0.8,5.5-3.6,11.5-3.5c5,0.1,14.7-1.8,15.4,5.1c0.9,7.3,0.4,6.9-4.2,13c-2.4,3.1-3,6.7,0.8,8.8
		c3.2,1.8,3,7.3,5.3,10.5c0.6,0.8,2,5.9,3.9,9c2,3.4,2.5,11-0.1,14.4c-1.5,1.9,3.4,13.1-3.3,13.1c-4.5,0-10.6-1.8-12.5,2.1
		c-2.5,4.9-8.9,1-10.3,3.9c-3.8,8.2-14.9,16.2-20.7,19.1c-1,0.5-2.5,10.3-2.5,9.1c-0.3-4-2.5-4.8-3-4.7c-0.6,0-2.9,1.6-4,7.3
		c-0.2,0.8-1.1-9.1-2.2-7.8c-1.3,1.7-1,0.5-2,2.7c0.6-2.3-0.5-4.3-1.1-4.7c-11.9-8-16.1-13.5-19.3-19.5c-1.2-0.7-3.6,1.2-3,4.8
		c-0.7-0.5-4.5-8.2-5.2-8.7c-1.5-1,0.6,10.4,0.3,11.8c-7.5-5.2-9.7-14.3-10.8-14.8c-1.1-0.5-2.8,6.3-3.2,6.5
		c-0.9,0.3,0.7-3.5-1.2-7.4c-4.7-9.2-0.6-12-2.2-14c-0.4-0.5-1.9-3.8-0.2-4.2C5,87.8,5,87.7,5,88.1z"/>
	<path class="st16" d="M20.4,52.2c0,4.1-3.6,5.7-4.4,8.5c1.8-1.2,6-4.8,7.3-6.3c1.2-1.5,2.5-3.1,2.9-5.2c-1.3,0.9-2.3,3.4-3.8,3.8
		c-0.6-1.3-0.8-2.6-1.7-3.9c-0.7-0.9-1.5-1.6-2.4-2.3c-0.3,0.4-0.8,0.8-1.2,1.1c0.3,0.3,0.6,0.5,1,0.8C18.9,49.5,20.4,51,20.4,52.2
		L20.4,52.2z M37.8,37c0.7,0.8,0.3,1.6-2.8,3.5c-0.5,0.3-1.2,0.7-1.9,1.1l3.3-0.7c4.9-2.4,11.4-5.2,15.8-5.2l4,0.6
		c-1.1,0.1-2.6,0.6-4.1,1.2l12.8-2.8c-0.4,0-0.9-0.1-1.4-0.1c-1.3,0-2.7,0-4,0c-5.6,0-4.3-1.1-12.3-0.2c-2.3,0.3-4.7,0.8-7,0.5
		C39.7,35.7,38.8,36.5,37.8,37L37.8,37z M43.7,42.2c-1.8,1.5-2,2.1-4,2.3c-2.4,0.2-3.7,1.5-5.3,3c-1.8,1.8-3.9,3.6-5.2,5.9
		c2.2-0.6,4.6-3.3,6.3-4.7c0.5-0.4,0.7-0.6,1.2-1l2.7-1.9c2.2,1.4,1.2,0.4,5-1.9c1.2-0.7,3.2-1.6,4.6-2c0.2-0.1,0.4-0.1,0.6-0.2
		L43.7,42.2L43.7,42.2z M62.5,40.5l2.5-0.2c0.4,0.3,0.7,0.7,1.1,1c1.3,1.2,1.5,1.8-0.7,0.9c-0.8-0.3-1.3-0.6-2-1.1
		C63.1,40.9,62.8,40.7,62.5,40.5L62.5,40.5z M76.2,39.3c1.6,0.6,2.9,1.5,5.2,4.4c0.6,0.7,2.3,2.9,3.1,3.2c-0.4-1.9-3-5.7-3.8-8
		L76.2,39.3L76.2,39.3z M80.7,38c0,0,0.1-0.1,0.1-0.1c-0.6-0.4-1-1-1.4-1.6c-0.2,0.1-0.3,0.1-0.5,0.2C79.5,37.1,80.1,37.6,80.7,38
		L80.7,38z M72.2,33l-6,1.3c-4.1-1.8-7.5-4-12.3-2.1c-3.9,1.6-5.3,0.4-7.2,0.7c-1.7,0.3-3.4,1.2-5.1,1.3c1.1-1,2.6-1.5,4-2
		c1.5-0.5,3-0.9,4.6-1.2c7.6-1.4,4.1-0.7,10.7-0.7c3.4,0,6.9,0.8,9.8,2.1C71.2,32.6,71.7,32.8,72.2,33z"/>
	<path class="st17" d="M19.9,52.1c0,4.1-3.6,5.7-4.4,8.5c1.8-1.2,6-4.8,7.3-6.3c1.2-1.5,2.5-3.1,2.9-5.2c-1.3,0.9-2.3,3.4-3.8,3.8
		c-0.6-1.3-0.8-2.6-1.7-3.9c-1.2-1.6-3-2.5-4.3-4.1c-0.5-0.6-0.8-1-1.2-1.7c-1.3-2-2.1-7.9-0.4-10.1c0.6-0.7,2-0.9,3.2-0.9h11.9
		c3.1,0,4.3,1.9,6.4,3.4c1.9,1.4,3.1,2-1.3,4.6c-1.1,0.7-3,1.5-3.4,2.8c4.3-2.3,14.6-7.7,20.6-7.7l4,0.6c-3,0.3-8.8,3.3-11.3,5.1
		c-2.9,2.2-2.8,3-5.1,3.2c-2.4,0.2-3.7,1.5-5.3,3c-1.8,1.8-3.9,3.6-5.2,5.9c2.2-0.6,4.6-3.3,6.3-4.7c0.5-0.4,0.7-0.6,1.2-1l2.7-1.9
		c2.2,1.4,1.2,0.4,5-1.9c1.2-0.7,3.2-1.6,4.6-2c3.4-1,7-0.8,8-1.8c2.5-2.3,3.6-0.6,6.2,1c0.7,0.4,1.2,0.7,2,1.1
		c2.2,0.9,2,0.2,0.7-0.9c-1.8-1.6-4.3-4-6.6-4.6V36c5.7,0,3.6-1.2,11.8,1.6c5.4,1.8,6.1,0.9,10.1,5.9c0.6,0.7,2.3,2.9,3.1,3.2
		c-0.5-2.1-3.5-6.4-4-8.5c0.9-1.3,3.5-2,5-2.7c6.2-3,6.4-2.5,12.6,0.1c2.2,0.9,4,1.7,4,4.5c0,2.8-1.5,5.9-2.7,7.5
		c-2.7,3.6-6.4,6.2-2.3,9.4l3.5,3c1.1,1,2.4,2.3,3.6,3.1c-0.9-3.9-8.2-6.2-5.3-12.2c2.8-5.5,13.9-14.7-1.2-18.2
		c-2.8-0.7-5.8-0.8-8.7-0.2c-5.2,1.1-9.3,4.2-10.6,4.2c-0.3,0-2.3-1.9-3.4-2.4c-1.4-0.7-2.9-1.1-4.3-1.7c-2.9-1.3-6.3-2.1-9.8-2.1
		c-6.6,0-3.1-0.7-10.7,0.7c-1.7,0.3-3.2,0.7-4.6,1.2c-1.4,0.5-2.9,1-4,2c1.7-0.1,3.4-1,5.1-1.3c1.9-0.4,3.2,0.9,7.2-0.7
		c4.8-2,8.4,0.4,12.6,2.2l0.4,0.2c0,0,0.1,0,0.1,0.1c-1.5,0-2.3-0.2-3.5-0.2c-1.3,0-2.7,0-4,0c-5.6,0-4.3-1.1-12.3-0.2
		c-3.1,0.3-6.5,1.3-9.4-0.4c-2.7-1.6-4.8-3.8-10.4-3.8c-3.2,0-6.2,0.4-9.2,1c-4.1,0.8-7.3,1.6-6.3,7.2c0.7,3.7,2.2,6.8,4.6,9.1
		c0.6,0.6,1,0.8,1.6,1.3C18.4,49.4,19.9,50.8,19.9,52.1z"/>
	<path class="st16" d="M23.9,99.2c0.5-2.3,2-2.5-0.6-5.1C15.7,86.5,18.2,79,20,67.8c1.2-7.2,1.3-5.9,5.2-9.8
		c0.7-0.7,1.3-1.2,1.8-1.9c-1.1,0.1-3.6,1.9-4.9,2.4c-0.6,0.3-1.2,0.4-1.8,0.7c-0.5,0.2-1,0.4-1.6,0.7c-1.1,0.6-1.9,1.4-2.7,2.3
		C12.3,67,14.5,74.4,12.3,78c-0.4,0.6-0.7,0.9-1.1,1.4l3.2,8.4c0.4,1.6,0.7,3.2,1.1,4.7c0.4,1.7,0.9,2.8,1.4,4.5
		c0.6,2.2,2.4,7,4.3,7.4c2.8,0.5,6-3.5,7.7-3.9c-0.1,1.5-1.8,2.7-2.8,3.5c-0.9,0.7-3.2,2.1-3.5,2.8c0.9-0.4,2.2-0.9,3.1-1.2
		c1.9-0.7,8.3-3.2,9.1-4.4c-0.7-0.3-0.9-0.2-1.9-0.2c-0.1-0.6-0.3-0.7,0.3-1.2c1.4-1.3,1.8-0.5,3.3,0.7c1.9,1.5,4.3,3.5,7.1,3.6
		c-0.5-0.7-2.4-1.9-3.3-2.6c-0.8-0.6-3-2.1-3.4-2.6c2.3-1.5,2.9,0.2,5.2,0.4l-0.8-0.6c-2-1.2-2.9-2.4-4.2-1.7c0,0-0.9,0.7-1,0.7
		c-0.6,0.5-0.9,1.2-1.8,1.1c-0.2,0-0.8-0.3-1.1-0.3C28.6,97,25.8,99,23.9,99.2z"/>
	<path class="st17" d="M24.4,99.5c0.5-2.3,2-2.5-0.6-5.1c-7.7-7.6-5.2-15.1-3.3-26.3c1.2-7.2,1.3-5.9,5.2-9.8
		c0.7-0.7,1.3-1.2,1.8-1.9c-1.1,0.1-3.6,1.9-4.9,2.4c-0.6,0.3-1.2,0.4-1.8,0.7c-0.5,0.2-1,0.4-1.6,0.7c-1.1,0.6-1.9,1.4-2.7,2.3
		c-3.9,4.8-1.7,12.2-3.8,15.7c-0.4,0.6-0.7,0.9-1.1,1.4l3.2,8.4c0.4,1.6,0.7,3.2,1.1,4.7c0.4,1.7,0.9,2.8,1.4,4.5
		c0.6,2.2,2.4,7,4.3,7.4c2.8,0.6,6-3.5,7.7-3.9c-0.1,1.5-1.8,2.7-2.8,3.5c-0.9,0.7-3.2,2.1-3.5,2.8c0.9-0.4,2.2-0.9,3.1-1.2
		c1.9-0.7,8.3-3.2,9.1-4.4c-0.7-0.3-0.9-0.2-1.9-0.2c-0.1-0.6-0.3-0.7,0.3-1.2c1.4-1.3,1.8-0.5,3.3,0.7c1.9,1.5,4.3,3.5,7.1,3.6
		c-0.5-0.7-2.4-1.9-3.3-2.6c-0.8-0.6-3-2.1-3.4-2.6c2.3-1.5,2.9,0.2,5.2,0.4l-0.8-0.6c-2-1.2-2.9-2.4-4.2-1.7c0,0-0.9,0.7-1,0.7
		c-0.6,0.5-0.9,1.2-1.8,1.1c-0.2,0-0.8-0.3-1.1-0.3C29.1,97.4,26.3,99.3,24.4,99.5z"/>
	<path class="st16" d="M32.9,67.9L32.9,67.9l-0.1-0.1c-1.2-1.8-1.2-3.7-0.4-5.2c0.4-3.8,2-8,3.6-11.1c0.4-0.7,0.6-1.1,0.9-1.7
		c0.3-0.5,0.9-1.4,1-1.9c-2.2,0.2-3.1,1.5-4.6,3.2c-2.7,3.3-4.4,5.7-6.8,8.8c-2.1,2.7-5,4.3-5.6,10.1c-0.2,2,0.6,5.1,1,6.8
		c0.4,2.1,0.9,4.4,1.7,6.2c1.6,3.8,2.1,3.3,3.2,4.9c-1.5,1-2.8,0.6-5.4,1.2v0.4c0.8,0.2,5.1,2.5,6.5,3.2c0.9,0.4,1.1,0.9,2.4,0.9
		c-0.5-0.8-1.2-1.1-2.1-2.7c2.4-3.5,6.5-2.5,9.2-6.3c-1,0.1-3.4,0.9-4.4,1.2c-5,1.4-7,0.8-8.3-7.1c-0.6-3.5-0.5-6.8,0.2-10.1
		c1.1-5.3,3.3-6.6,3.6-7.7c1.7,0.4,1.8,3.6,1.6,5c-1.4,7.4-0.9,6.1,4.3,8.1c0.7,0.3,1.4,0.5,2.2,0.8c0-1.5,0-1.1-0.1-1.5
		c-0.2-0.2-0.5-0.3-0.7-0.6C34.6,71.8,33,69.5,32.9,67.9z"/>
	<path class="st17" d="M40.5,69.7c0,0.6,0.7,1,1.3,1c0.8,0,1.3-0.9,1.9-1.3c2.9,4.4-5.3,4.1-5.4-0.2c0-0.8,1.2-2,2.1-1.3
		C41.2,68.9,40.5,69.2,40.5,69.7L40.5,69.7z M33.8,67.8c1.9,0.4,2.6,0.5,3.6,2.6c0.8,1.6,1,2.7,2.8,3.5c3.9,1.7,3.6-1.7,3.6,8.9
		c0.8-0.3,1.2-1.9,1.5-2.6c1.8-4.3,3.1-3.5,0.4-8.9c-3.1-6.2-4.7-3.9-12.1-3.9v-2.9c2.8,0,4.3-0.7,6.2-0.2c1.6,0.4,3.2,1.5,4.6,2.3
		c-0.2-0.6-3.8-4.4-5.1-5.1c-0.9-0.4-2.9-1.1-3.9-0.5c-1.1,0.7-0.5,1.9-2.2,3c0-4.2,1.9-9.4,3.7-13c0.4-0.7,0.6-1.1,0.9-1.8
		c0.3-0.5,0.9-1.4,1-1.9c-2.2,0.2-3.1,1.5-4.6,3.3c-2.7,3.4-4.4,5.8-6.8,9c-2.1,2.7-5,4.4-5.6,10.2c-0.2,2.1,0.6,5.2,1,6.9
		c0.4,2.1,0.9,4.4,1.7,6.3c1.6,3.9,2.1,3.4,3.2,4.9c-1.5,1-2.8,0.6-5.4,1.3v0.4c0.8,0.2,5.1,2.5,6.5,3.3c0.9,0.5,1.1,0.9,2.4,0.9
		c-0.5-0.8-1.2-1.1-2.1-2.7c2.4-3.6,6.5-2.5,9.2-6.5c-1,0.1-3.4,0.9-4.4,1.2c-5,1.5-7,0.8-8.3-7.2c-0.6-3.6-0.5-6.9,0.2-10.3
		c1.1-5.3,3.3-6.7,3.6-7.9c1.7,0.5,1.8,3.7,1.6,5.1c-1.4,7.5-0.9,6.2,4.3,8.2c0.9,0.3,1.7,0.6,2.6,0.9c1.3,0.4,1.3,0.5,3,0.5
		c-0.3-0.2-0.1-0.1-0.5-0.3c-2-1.2-1.2-0.4-3.8-2.4C35.4,71.8,33.8,69.4,33.8,67.8z"/>
	<path class="st16" d="M20.4,118.3c-0.2-0.5-1.2-4.3-1.2-5c-1.4-0.1-3-1-3-2.6c0-2.3,3-3.9,1-6.8c-1.4-2-2.6-2.6-3.4-6
		c-0.3-1.3-0.3-2.8-0.6-4c-0.8-3.4-2,0-3-6.6l-0.8-4c-0.1,0.9-0.5,1.4-0.4,2.4c0.6,7.2,0.1,10.1,2.5,18.1c0.5,1.6,1,2.8,1.6,4.2
		c0.6,1.5,1.2,2.5,2,3.8c1.2,2,2.3,3.4,3.8,5C19.4,117.4,19.5,118,20.4,118.3z"/>
	<path class="st17" d="M21.1,118.4c-0.2-0.5-1.2-4.5-1.3-5.2c-1.5-0.1-3.1-1-3.1-2.7c0-2.4,3.1-4.1,1-7.1c-1.4-2-2.7-2.7-3.6-6.2
		c-0.3-1.3-0.3-2.9-0.6-4.2c-0.8-3.6-2,0-3.2-6.8L9.6,82c-0.1,1-0.5,1.4-0.4,2.5c0.7,7.5,0.1,10.5,2.6,18.9c0.5,1.6,1,2.9,1.7,4.4
		c0.6,1.5,1.2,2.6,2,4c1.3,2.1,2.4,3.5,3.9,5.2C20.1,117.6,20.2,118.2,21.1,118.4z"/>
	<path class="st17" d="M57.5,102.8c2.2-0.5,4.3-3.1,5.6-1c-0.5,0.6-1.6,0.6-3.4,2c-1.4,1.1-1.4,1.7-1.8,3.6c-5,0.1-3.1-0.3-4.6-2.5
		c-1.2-1.7-2.4-2.1-3.8-3l-0.5-0.3c2.1-0.5,2.2,0.1,4,0.2c-1-1.5-3.8-2.2-4.9-2.6c-2.6-1-0.9-3.2-0.9-5.5h-0.6
		c-0.1,1.4-0.9,2.3-1.2,3.6c-0.4,1.7,0.4,2.7,1,3.7c1.9,3.2,3.4,2.6,5,4.6l2.2,2.6c2.7,2.8,2.4,2.8-0.9,5.3c-1,0.7-2.1,1.3-2.4,2.6
		c7-3.7,9.4,0.4,12.3,1c-0.4-1.4-4.6-4.4-5.1-5.3c-1.4-2.3,1.6-3,3.9-5.9c2.3-2.9,3.5-2.5,5.1-5.3c1.3-2.3,1.5-6.5-1.4-7.2
		c1.5,2.7,2.7,4.6-0.9,6.2C62.6,100.1,59.8,99.5,57.5,102.8z"/>
	<path class="st16" d="M82.9,66.2c-1.8-0.1-5.5-1.6-6.9-1.7c0.9,0.8,2.5,1.7,3.6,2.2c2.5,1.3,3.1,0.9,4.4,1.5c3.7,1.5,3,5.7,4.7,6.9
		c0-7.8-3.9-12.2-4-15.8c3.7,1.8,3.5,1.7,3.7,0c0.3-2.9-2.5-6.9-4.6-8.6c-1.1-0.9-2.8-2-4.5-2.2c0.6,1.3,3.1,7.2,3.1,7.9
		c0.2,2.4-0.8,0.7-0.2,4.8C82.5,62.7,82.9,64.5,82.9,66.2z"/>
	<path class="st16" d="M72.7,74.9c0.3,1,1.5,1.3,1.5,2.5c0,0.7-2.1,2.1-2.7,2.9c1,2,1.4,2.6,3,4.1c1,1.1,2.7,2.3,4.7,2.3
		c-1.2-1.8-3.9-2.9-5-5.6c-0.2-0.5-0.2-0.8-0.4-1.3c1.5,0.3,3.1,1.7,4.6,2.1c-0.2-0.7-0.3-0.5-0.8-1.1c-0.3-0.3-0.7-0.9-0.9-1.2
		c0.7,0.1,1,0.4,1.6-0.1c0.8-0.9-0.7-0.4,0.8-1c3-1.2,7.8-1.6,7.8-5.7c0-1-0.7-2.3-1.3-2.7c-0.2,0.7-0.8,1.4-1.2,1.9
		c-0.2,0.3-0.4,0.5-0.7,0.8l-0.3,0.3c-3.1,3.1-4.6,2.9-7.4,2.2c0.3-0.3,0.1-0.1,0.5-0.3l5.7-3.4c1.5-1,1.7-2.7,0.7-2.7
		c-2.1,0-1.6,0.5-2.9,1.5C79,71.1,73.5,74.7,72.7,74.9z"/>
	<path class="st17" d="M82.5,66.2c-1.8-0.1-5.5-1.6-6.9-1.7c0.9,0.8,2.5,1.7,3.6,2.2c2.5,1.3,3.1,0.9,4.4,1.5c3.7,1.5,3,5.7,4.7,6.9
		c0-7.8-3.9-12.2-4-15.8c3.7,1.8,3.5,1.7,3.7,0c0.3-2.9-2.5-6.9-4.6-8.6c-1.1-0.9-2.8-2-4.5-2.2c0.6,1.3,3.1,7.2,3.1,7.9
		c0.2,2.4-0.8,0.7-0.2,4.8C82.1,62.7,82.5,64.5,82.5,66.2z"/>
	<path class="st17" d="M72.3,74.9c0.3,1,1.5,1.3,1.5,2.5c0,0.7-2.1,2.1-2.7,2.9c1,2,1.4,2.6,3,4.1c1,1.1,2.7,2.3,4.7,2.3
		c-1.2-1.8-3.9-2.9-5-5.6c-0.2-0.5-0.2-0.8-0.4-1.3c1.5,0.3,3.1,1.7,4.6,2.1c-0.2-0.7-0.3-0.5-0.8-1.1c-0.3-0.3-0.7-0.9-0.9-1.2
		c0.7,0.1,1,0.4,1.6-0.1c0.8-0.9-0.7-0.4,0.8-1c3-1.2,7.8-1.6,7.8-5.7c0-1-0.7-2.3-1.3-2.7c-0.2,0.7-0.8,1.4-1.2,1.9
		c-0.2,0.3-0.4,0.5-0.7,0.8L83,73.1c-3.1,3.1-4.6,2.9-7.4,2.2c0.3-0.3,0.1-0.1,0.5-0.3l5.7-3.4c1.5-1,1.7-2.7,0.7-2.7
		c-2.1,0-1.6,0.5-2.9,1.5C78.6,71.1,73.2,74.7,72.3,74.9z"/>
	<path class="st17" d="M72.3,71.8c-0.7,0-2.5-0.7-2.5-1.3c0-0.8,0.3-1,0.6-1.5c1.2,0.3,1.2,1,2.7,1c1.1,0,0.8-1.6,1-2.7
		C78.2,67.7,74.6,71.8,72.3,71.8L72.3,71.8z M64.2,78.2c0,3.1,0.8,5,2.5,6.9c2.5,2.7,1.9,2.6,2.8,6.2c0.9-0.3,1.9-2.5,1.9-2.9
		c0-2.8-4.4-3.2-4.4-8.5c0-1.9,0.4-3.6,1.5-4.4c1.3,1,1.2,4.5,1.3,5.8c0.1,1.9,0.3,1.6,0.6,1.9c0.1-0.8,0.2-0.5,0.2-1.9
		c0-2.4-1.1-6.9,2.2-8c2.2-0.7,3.5-1.5,4.6-3.5c0.4-0.8,0.5-1,1.1-1.6c1.2,0.1,0.9,0.5,2.1,0.6c-1.8-2.5-9-3.5-11.2,0.3
		c-0.5,1-0.3,1.2-0.6,2.3C67.8,74.7,64.2,75,64.2,78.2z"/>
	<path class="st16" d="M5.4,78.5C5.4,82.8,5,95.8,6.2,99c0.5,1.3,1.2,2,1.8,3.2c1.6,3.4,1,4.1,0.9,8.2c0.9-0.6,1.6-3.9,1.6-4.9
		c0-1.8-3.8-11.3-3.8-17.3c0-1.6,0.8-13.1,1.2-15c0.5-2.4,1.4-3.8,2.9-5.2c0.7-0.7,1.3-1.4,2-2.2c0.3-0.4,0.5-0.8,0.8-1.2
		c0.4-0.6,0.6-0.7,0.8-1.3c-0.8,0.5-0.9,0.7-1.6,1.3c-0.7,0.6-1,0.8-1.7,1.5c-1.5,1.6-3.2,2.2-4.2,4.7c-0.4,1.1-0.3,1.4-0.5,2.7
		C6.4,75,5.4,76.6,5.4,78.5z"/>
	<path class="st17" d="M5.1,78.5c0,4.3-0.4,17.4,0.9,20.6c0.5,1.3,1.2,2,1.8,3.2c1.6,3.4,1,4.1,0.9,8.2c0.9-0.6,1.6-3.9,1.6-4.9
		c0-1.8-3.8-11.3-3.8-17.3c0-1.6,0.8-13.1,1.2-15c0.5-2.4,1.4-3.8,2.9-5.2c0.7-0.7,1.3-1.4,2-2.2c0.3-0.4,0.5-0.8,0.8-1.2
		c0.4-0.6,0.6-0.7,0.8-1.3c-0.8,0.5-0.9,0.7-1.6,1.3c-0.7,0.6-1,0.8-1.7,1.5c-1.5,1.6-3.2,2.2-4.2,4.7c-0.4,1.1-0.3,1.4-0.5,2.7
		C6,75,5.1,76.6,5.1,78.5z"/>
	<g>
		<path class="st16" d="M99.5,67.8c0.2,3.3,3.1,5.4,3.3,12.7c0,1,0.2,1.2,0.2,2.3c0,1.8-0.3,6.9-0.7,8.7c-0.4,1.8-1,3.4-2.1,4.8
			c-1.1,1.5-1,0.9-1,2.6c0,0.8,1.5,4.3-0.2,10c-1,3.4-2.4,4-2.5,5.4l3.1-3.4c4.2-5.2,5.8-5.8,6.7-13.1c0.2-1.4,0.3-2.4,0.6-3.8
			c1.3-6.6-0.4-10.5-1.5-16.9c-0.2-1.5-0.2-1.9-0.7-3c-0.6-1.4-3.8-6.3-4.6-6.9L99.5,67.8z"/>
		<path class="st16" d="M97.4,82.3c0,11.1-7.9,11.6-9.8,14.4c4.8,0,9.1,2.1,12.3-4.4c0.5-0.9,0.9-2.1,1-3.3c0.4-3.7,0.2-1.3,0-3.9
			c-0.1-1.4,0.1-3,0-4.4c-0.1-1.1-0.3-2.9-0.4-4c-0.4-4.5-2.2-9.5-4-13.5c-0.8-1.8-1.8-4.3-3.1-5.7c-0.8-0.9-3.9-4.1-4.6-4.3
			c-0.5,1,2.2,5.1,2.8,6.1l1.8,3c0.5,1,1.1,2.1,1.5,3.3C96.6,70.2,97.4,76.1,97.4,82.3z"/>
		<path class="st16" d="M110.1,86.2c0,2.9-0.7,5.5-1.6,8.4c-0.4,1.2-0.6,2.3-0.9,3.4c-1.4,4.9-0.7,4,0.2,7.9h0.4
			c0-6.2,0.2-8.6,2.4-12.8c0.8-1.7,2-3.3,2.3-5.2c0.3-1.4-2.9-9.6-3.7-11.3l-1.3-2.4c-0.5-1-0.9-1.7-1.3-2.6
			c-0.4-0.8-0.8-1.6-1.2-2.6c-0.6-1.5-1.4-6.7-4.2-7.4C102.5,64.5,110.1,84.6,110.1,86.2z"/>
	</g>
	<g>
		<path class="st19" d="M99,67.5c0.2,3.3,3.1,5.4,3.3,12.7c0,1,0.2,1.2,0.2,2.3c0,1.8-0.3,6.9-0.7,8.7c-0.4,1.8-1,3.4-2.1,4.8
			c-1.1,1.5-1,0.9-1,2.6c0,0.8,1.5,4.3-0.2,10c-1,3.3-2.4,4-2.5,5.4l3.1-3.4c4.2-5.2,5.8-5.8,6.7-13.1c0.2-1.4,0.3-2.4,0.6-3.8
			c1.3-6.6-0.4-10.5-1.5-16.9c-0.2-1.5-0.2-1.9-0.7-3c-0.6-1.4-3.8-6.3-4.6-6.9L99,67.5z"/>
		<path class="st17" d="M96.9,82c0,11.1-7.9,11.6-9.8,14.4c4.8,0,9.1,2.1,12.3-4.4c0.5-0.9,0.9-2.1,1-3.3c0.4-3.7,0.2-1.3,0-3.9
			c-0.1-1.4,0.1-3,0-4.4c-0.1-1.1-0.3-2.9-0.4-4c-0.4-4.5-2.2-9.5-4-13.5c-0.8-1.8-1.8-4.3-3.1-5.7c-0.8-0.9-3.9-4.1-4.6-4.3
			c-0.5,1,2.2,5.1,2.8,6.1l1.8,3c0.5,1,1.1,2.1,1.5,3.3C96.1,69.9,96.9,75.8,96.9,82z"/>
		<path class="st17" d="M109.6,85.9c0,2.9-0.7,5.5-1.6,8.4c-0.4,1.2-0.6,2.3-0.9,3.4c-1.4,4.9-0.7,4,0.2,7.9h0.4
			c0-6.2,0.2-8.6,2.4-12.8c0.8-1.7,2-3.3,2.3-5.2c0.3-1.4-2.9-9.6-3.7-11.3l-1.3-2.4c-0.5-1-0.9-1.7-1.3-2.6
			c-0.4-0.8-0.8-1.6-1.2-2.6c-0.6-1.5-1.4-6.7-4.2-7.4C102,64.2,109.6,84.3,109.6,85.9z"/>
	</g>
	<path class="st17" d="M31.5,33.9c0,1.2,0.5,1.9,0.4,3.1c-0.3,2.7-2.9,5.6-4.7,6.4c-3.4,1.5-4.2-1.9-4.4-2.2
		c-0.5-0.8-1.3-1.7-2.3-2.1c-0.8-0.3-2.2-0.2-3-0.2c0.5,1.1,1.4,7.3,2.3,9.1c0.6,1.2,2.4,2.1,3.8,1.1c2.3-1.7,1.5-3.6,5.4-6.3
		c1.7-1.1,6.1-3.1,5.4-6.1C34.2,35.5,32.7,34.2,31.5,33.9z"/>
	<path class="st17" d="M89.2,43.7L89,45.3c-2.5,1.2-3.6-0.9-5-1.9c0,3.9,4.6,7.5,7.1,9.2c-0.1-0.6-0.2-1-0.4-1.5
		c2.9,0,5.1,0.5,5.6-1.9c-0.6-1.2-1.2-1.6-2.3-2.3c0.4-1.8,0.7-2.9-1.5-4.6c-2.4-1.8-2.5-1.4-4.6-2.5C88.1,41.4,89.2,41.9,89.2,43.7
		z"/>
	<path class="st16" d="M61.3,58.4l0.2,0.4L61.3,58.4z M61.3,58.4L61.3,58.4L61.3,58.4z M61.5,58.8c0.6,0.4,2.2,2.8,2.8,3.6
		c0.3,0.4,0.4,0.5,0.7,0.9c0.8,1,1.3,1.9,3.1,1.9c-0.7-2.5-4.9-3.8-4.1-9.5c0.6-4.1-2.5-0.1-4.9-5c-0.3-0.7-0.9-1.8-1-2.6h-0.4
		c0,4.4,1.4,10,3.4,13.7c5.3,9.8,2.1,10.9,3.3,13.4c0.6-0.4,0.7-2.2,1-3.4c0.2-1.1,0.7-2.8,0.7-3.9c-1.5,0.3-1.1-0.5-2.6-4.1
		C62.9,62.4,61.8,60.3,61.5,58.8z"/>
	<path class="st17" d="M61.1,58.5l0.2,0.4L61.1,58.5z M61.1,58.5L61.1,58.5L61.1,58.5z M61.3,58.9c0.6,0.4,2.2,2.8,2.8,3.6
		c0.3,0.4,0.4,0.5,0.7,0.9c0.8,1,1.3,1.9,3.1,1.9c-0.7-2.5-4.9-3.8-4.1-9.5c0.6-4.1-2.5-0.1-4.9-5c-0.3-0.7-0.9-1.8-1-2.6h-0.4
		c0,4.4,1.4,10,3.4,13.7c5.3,9.8,2.1,10.9,3.3,13.4c0.6-0.4,0.7-2.2,1-3.4c0.2-1.1,0.7-2.8,0.7-3.9c-1.5,0.3-1.1-0.5-2.6-4.1
		C62.7,62.5,61.6,60.4,61.3,58.9z"/>
	<path class="st16" d="M39.2,52c1.4-0.1,3.3-1.5,4.9-2c4.6-1.5,11.2-0.8,13.4-4.3c1.2-1.9,0.8-3.1,0.4-4.8c-1.6,0.4-2.2,4.3-9.5,5.3
		C44.8,46.7,41,49.3,39.2,52z"/>
	<path class="st17" d="M39.2,51.6c1.4-0.1,3.3-1.5,4.9-2c4.6-1.5,11.2-0.8,13.4-4.3c1.2-1.9,0.8-3.1,0.4-4.8
		c-1.6,0.4-2.2,4.3-9.5,5.3C44.8,46.3,41,48.9,39.2,51.6z"/>
	<path class="st16" d="M46.8,62.7c0,1.5,0.5,1.5,0.8,2.9c-1.3,0.3-0.6,0-1.9,0c0.4,1.3,2.9,2.4,2.9,5.6c0,1.3-0.2,1.5-0.2,2.7
		c0.9-0.3,1.9-1.6,1.9-1.9c0-2.1-1.1-0.2-1.7-5.6c-0.2-1.7-1.2-4.4,2.6-4.4c1.5,0,0.6,3,0.6,4.4c0.7-0.5,0.8-1.5,1.2-2.3
		c1.3-2.5,2.7-5.5,2.7-8.5c-0.9,0.2-1.4,0.8-2.5,1.5C51.5,58.3,46.8,61,46.8,62.7z"/>
	<path class="st17" d="M47.1,63c0,1.5,0.5,1.5,0.8,2.9c-1.3,0.3-0.6,0-1.9,0c0.4,1.3,2.9,2.4,2.9,5.6c0,1.3-0.2,1.5-0.2,2.7
		c0.9-0.3,1.9-1.6,1.9-1.9c0-2.1-1.1-0.2-1.7-5.6c-0.2-1.7-1.2-4.4,2.6-4.4c1.5,0,0.6,3,0.6,4.4c0.7-0.5,0.8-1.5,1.2-2.3
		c1.3-2.5,2.7-5.5,2.7-8.5c-0.9,0.2-1.4,0.8-2.5,1.5C51.8,58.7,47.1,61.4,47.1,63z"/>
	<path class="st17" d="M73.2,43.9L73.2,43.9L73.2,43.9z M76.1,48c-0.2-0.7-0.2-0.5-0.6-1c-0.3-0.4-0.5-0.7-0.8-1.1
		c-0.4-0.6-1.3-1.4-1.5-2.1c1.2,0.1,8.5,4.7,9.8,5.4c-0.2-0.6-0.4-0.9-0.8-1.3c-4.3-5.2-5.6-3.4-12.4-7.4c-0.4-0.3-0.9-0.5-1.3-0.8
		c-0.5-0.4-0.6-0.6-1.3-1c-2.3-1.5-3.7-2.5-6.4-2.5c0.8,1.2,2.8,3.2,4.4,3.5c-0.3-0.5-0.5-0.9-0.6-1.5c2,0.5,1.2,2.6,5.1,5.5
		L76.1,48z"/>
	<path class="st16" d="M36.1,82.5c1.5,0,2.9-0.3,3.5-1.3c-0.9-0.1-2.2-0.7-2.8-1.1c-0.8-0.6-1.5-1.4-0.9-2.6c-1.7,0-3.1-0.2-4-1
		c-0.7-0.7-1.7-2-1.8-3.2c-2.2,1.5-1.2,4.3-0.3,6.4c0.5,1.3,1.4,1.6,2.9,1.7C34.5,81.6,34.5,82.5,36.1,82.5z"/>
	<path class="st17" d="M36.4,82c1.5,0,2.9-0.3,3.5-1.3c-0.9-0.1-2.2-0.7-2.8-1.1c-0.8-0.6-1.5-1.4-0.9-2.6c-1.7,0-3.1-0.2-4-1
		c-0.7-0.7-1.7-2-1.8-3.2c-2.2,1.5-1.2,4.3-0.3,6.4c0.5,1.3,1.4,1.6,2.8,1.7C34.7,81.2,34.8,82,36.4,82z"/>
	<path class="st16" d="M68.6,55c-2,0-1-0.3-2.3-0.4c0.6,1.1,1,2.3,1.7,3.3c1.1,1.8,1.9,2,1.9,3.9c0,0.6-0.8,0.8-0.8,2.3
		c1.1-0.6,3.3-2.5,4.2-3.1c-0.5-1-0.4-1.6-1.4-2.2c-0.8-0.5-1.6-0.6-2.4-1.2c1.9-2.6,4.7,0.4,5,0.6c0-1.7-0.6-3.6-0.6-5.2
		C71.5,53.1,70,55,68.6,55z"/>
	<path class="st17" d="M69,54.9c-2,0-1-0.3-2.3-0.4c0.6,1.1,1,2.3,1.7,3.3c1.1,1.8,1.9,2,1.9,3.9c0,0.6-0.8,0.8-0.8,2.3
		c1.1-0.6,3.3-2.5,4.2-3.1c-0.5-1-0.4-1.6-1.4-2.2c-0.8-0.5-1.6-0.6-2.4-1.2c1.9-2.6,4.7,0.4,5,0.6c0-1.7-0.6-3.6-0.6-5.2
		C71.9,53,70.4,54.9,69,54.9z"/>
	<path class="st16" d="M44,56c-1.8,0-4.6-3.3-5.3,2.8c-0.1,1.1,0.1,0.6,0.1,1.8c1.4-0.1,1.9-2.5,2.7-2.5c1.1,0,1.3,0.8,2.1,1.3
		c1.7-1.2,0.1-3.2,4.9-4.9c1.1-0.4,2.6-0.8,3.4-1.4c0.4-0.4,0.8-0.8,1.3-1.2c0.5-0.5,0.9-0.7,1.1-1.4c-2.6,0.6-1.4,2.3-5.6,2.3
		c-1.6,0-2.4-0.2-3.2,0.8C45,54,44.5,56,44,56z"/>
	<path class="st17" d="M44,55.5c-1.8,0-4.6-3.3-5.3,2.8c-0.1,1.1,0.1,0.6,0.1,1.8c1.4-0.1,1.9-2.5,2.7-2.5c1.1,0,1.3,0.8,2.1,1.3
		c1.7-1.2,0.1-3.2,4.9-4.9c1.1-0.4,2.6-0.8,3.4-1.4c0.4-0.4,0.8-0.8,1.3-1.2c0.5-0.5,0.9-0.7,1.1-1.4c-2.6,0.6-1.4,2.3-5.6,2.3
		c-1.6,0-2.4-0.2-3.2,0.8C45,53.5,44.5,55.5,44,55.5z"/>
	<path class="st16" d="M60.2,46.2c4.6,0,2.8-1.3,8.1,1.3c1.2,0.6,2,1.1,3.1,1.7c0.9,0.5,2.5,1.4,3.4,1.6c0-3.4-2.1-4-6.3-5.2
		c-2-0.6-7.6-2.3-9.3-2.3c-0.1,0.8-0.2,1-0.1,1.7C59.3,45.6,59.6,46.2,60.2,46.2z"/>
	<path class="st17" d="M60.2,46.6c4.6,0,2.8-1.3,8.1,1.3c1.2,0.6,2,1.1,3.1,1.7c0.9,0.5,2.5,1.4,3.4,1.6c0-3.4-2.1-4-6.3-5.2
		c-2-0.6-7.6-2.3-9.3-2.3c-0.1,0.8-0.2,1-0.1,1.7C59.3,46,59.6,46.6,60.2,46.6z"/>
	<path class="st16" d="M56.6,69.1c0-3,0.4-5.6,0.4-8.7c1.3,0.9,3.9,8.4,5.4,9.4c-0.1-0.8-2.5-6.8-2.9-7.9l-2.6-7
		c-0.3-0.9,0.1-0.4-0.6-0.9c0,5.6-1.5,10.2-0.7,13.8c0,0.2,0.2,0.8,0.3,0.8C56.2,69.1,55.9,68.9,56.6,69.1z"/>
	<path class="st17" d="M56.9,69.1c0-3,0.4-5.6,0.4-8.7c1.3,0.9,3.9,8.4,5.4,9.4c-0.1-0.8-2.5-6.8-2.9-7.9l-2.6-7
		c-0.3-0.9,0.1-0.4-0.6-0.9c0,5.6-1.5,10.2-0.7,13.8c0,0.2,0.2,0.8,0.3,0.8C56.5,69.1,56.3,68.9,56.9,69.1z"/>
	<path class="st17" d="M75,62.4c0.9,0,2.8,0.7,3.6,1c1.1,0.4,3.3,1.4,3.3,0.7c0-2.9-4.9-4.4-5.4-4.4c-0.9,0-3,2-3.6,2.7
		c-1,1.1-1.7,2.4-2.7,3.5c-2,2.2,0.2,1.3,1.8-0.3C72.4,65.1,74.7,62.4,75,62.4z"/>
	<path class="st17" d="M32.8,46c1.9-1,3.7-1.9,5.7-2.8c1-0.5,1.8-0.9,2.8-1.4l2.8-1.6c-1.1,0-2.4,0.5-3.3,0.9
		c-3.2,1.1-4.8,0.1-6.4,2.1C33.8,43.7,32.8,45,32.8,46z"/>
	<path class="st17" d="M49,59.5c3.2-1.7,7.6-7.1,7.7-10.2c-1.4,1.6-0.3,1-4.1,4.8C51.5,55.2,49.2,57.7,49,59.5z"/>
	<path class="st17" d="M26.1,108.6c1.2-0.3,5.8-2.8,9-2.8c0.7,0-0.4-2.1-0.5-2.6C33.2,103.4,26.5,107.1,26.1,108.6z"/>
	<g>
		<path class="st16" d="M90.2,71.4c0,4.8-0.3,10.5-2.1,14c-0.8-0.1-1.7-0.5-2.5-0.4c-1.1,0.1-3,1.5-6.4-0.5c-1-0.6-2.1-1.5-3.4-1.6
			l4.4,3.7c1.4,0.9,3.6,1.6,4.1,4c-2.3,0-4.3-0.4-6.2-1.5c-2.6-1.5-2.8-2-4.7-3.2c0.2,2.4,4.9,7.7,8.3,7.7c0,1.3,0.4,2.1,0.4,3.3
			c0,0.4-0.5,1.1-0.6,1.5c-0.2,0.5-0.3,1.1-0.4,1.7c-0.7,3.4,0.8,9.3-9.7,11.1c-2.2,0.4-4.7,0.1-7.5,0.6c1.4,0.5,7,1.2,14.4-1.4
			c-0.7,0.9-5.3,3.1-6.7,3.5c-2.2,0.7-3.7,0.7-6.6,0.7c0.3,0.5,0.4,0.5,0.8,0.9l2.6,3.1l2.9-1.2c1.2-0.8-0.5-0.8,3.1-1.3
			c0.8-0.1,2.6-0.6,3.5-0.9c1.9-0.7,3.1-2.8,4.1-4.4c1.1-1.9,0.8-2.4,6.4-1.9c1.2,0.1,3.1,0.7,3.8-0.2c-1.1-0.1-2.6-0.5-3.8-0.7
			l-3.7-0.9c0.1-2.7,4.2-1.7,6.5-1.7c-0.7-0.6-0.4-0.3-1.4-0.5c-3.6-0.5-4.4,0-4.4-2.2c0-1,1.3-0.8,2.1-0.8c1.6,0,1.3,1.3,4.6,1.3
			c1.6,0,3.6-1.3,4-2.5c-3.1,0-8-3.6-10.8-2.3c0.5-1.8,3.8-4.3,4.5-6.1c0.5-1.2,0.1-1.7,0.1-3.1c0-0.5,1.5-0.5,1.9-2.5
			c0.3-1.4,0.2-2.7,0.6-4c0.2-0.6,0.4-0.9,0.7-1.4c2.4-5.4,0.7-12.9-2.1-16c-0.4-0.5-1.1-1.6-1.7-1.7C87.6,63.3,90.2,65.7,90.2,71.4
			z"/>
		<path class="st16" d="M32.7,113c0.4,0.6,1.9,1.5,2.5,2.1c0.9,0.7,1.6,1.3,2.6,1.9c1.4,0.9,4.3,2.7,6.5,2.7l4.7-3.6
			c0.6-0.5,1.1-0.8,1.5-1.4c-0.9,0.1-1.5,0.3-2.5,0.4c-9.7,0.6-10.4-3.8-11.1-3.3c-1-0.3-1.3-0.3-2.3,0.1
			C33.9,112.2,33.1,112.4,32.7,113z"/>
		<path class="st16" d="M50.5,109.7l-1.6-0.4c-4.5-0.4-10.5-3.4-13.1-7.3C36.3,108,45.7,111.2,50.5,109.7z"/>
		<path class="st16" d="M64,109.1c0.8,0.4,1.5,0.6,2.7,0.6c4,0,10.3-1.8,12.5-5c-1,0.1-2.7,0.9-3.5,1.3C72.4,108,64,109.1,64,109.1z
			"/>
		<path class="st16" d="M36.1,108l-0.2,0.4c1.1,0.6,1.2,1,2.2,1.6c3.9,2.5,9.8,3.7,13.3,2.1c-3.9-0.3-6.9,0.3-11.4-1.9L36.1,108z"/>
	</g>
	<g>
		<path class="st17" d="M90.3,71c0,4.8-0.3,10.5-2.1,14c-0.8-0.1-1.7-0.5-2.5-0.4c-1.1,0.1-3,1.5-6.4-0.5c-1-0.6-2.1-1.5-3.4-1.6
			l4.4,3.7c1.4,0.9,3.6,1.6,4.1,4c-2.3,0-4.3-0.4-6.2-1.5c-2.6-1.5-2.8-2-4.7-3.2c0.2,2.4,4.9,7.7,8.3,7.7c0,1.3,0.4,2.1,0.4,3.3
			c0,0.4-0.5,1.1-0.6,1.5c-0.2,0.5-0.3,1.1-0.4,1.7c-0.7,3.4,0.8,9.3-9.7,11.1c-2.2,0.4-4.7,0.1-7.5,0.6c1.4,0.5,7,1.2,14.4-1.4
			c-0.7,0.9-5.3,3.1-6.7,3.5c-2.2,0.7-3.7,0.7-6.6,0.7c0.3,0.5,0.4,0.5,0.8,0.9l2.6,3.1l2.9-1.2c1.2-0.8-0.5-0.8,3.1-1.3
			c0.8-0.1,2.6-0.6,3.5-0.9c1.9-0.7,3.1-2.8,4.1-4.4c1.1-1.9,0.8-2.4,6.4-1.9c1.2,0.1,3.1,0.7,3.8-0.2c-1.1-0.1-2.6-0.5-3.8-0.7
			l-3.7-0.9c0.1-2.7,4.2-1.7,6.5-1.7c-0.7-0.6-0.4-0.3-1.4-0.5c-3.6-0.5-4.4,0-4.4-2.2c0-1,1.3-0.8,2.1-0.8c1.6,0,1.3,1.3,4.6,1.3
			c1.6,0,3.6-1.3,4-2.5c-3.1,0-8-3.6-10.8-2.3c0.5-1.8,3.8-4.3,4.5-6.1c0.5-1.2,0.1-1.7,0.1-3.1c0-0.5,1.5-0.5,1.9-2.5
			c0.3-1.4,0.2-2.7,0.6-4c0.2-0.6,0.4-0.9,0.7-1.4c2.4-5.4,0.7-12.9-2.1-16c-0.4-0.5-1.1-1.6-1.7-1.7C87.6,62.8,90.3,65.3,90.3,71z"
			/>
		<path class="st17" d="M32.8,112.6c0.4,0.6,1.9,1.5,2.5,2.1c0.9,0.7,1.6,1.3,2.6,1.9c1.4,0.9,4.3,2.7,6.5,2.7l4.7-3.6
			c0.6-0.5,1.1-0.8,1.5-1.4c-0.9,0.1-1.5,0.3-2.5,0.4c-9.7,0.6-10.4-3.8-11.1-3.3c-1-0.3-1.3-0.3-2.3,0.1
			C33.9,111.7,33.2,112,32.8,112.6z"/>
		<path class="st17" d="M50.6,109.3l-1.6-0.4c-4.5-0.4-10.5-3.4-13.1-7.3C36.4,107.6,45.8,110.8,50.6,109.3z"/>
		<path class="st17" d="M64,108.7c0.8,0.4,1.5,0.6,2.7,0.6c4,0,10.3-1.8,12.5-5c-1,0.1-2.7,0.9-3.5,1.3
			C72.5,107.6,64,108.6,64,108.7z"/>
		<path class="st17" d="M36.1,107.6l-0.2,0.4c1.1,0.6,1.2,1,2.2,1.6c3.9,2.5,9.8,3.7,13.3,2.1c-3.9-0.3-6.9,0.3-11.4-1.9L36.1,107.6
			z"/>
	</g>
	<g>
		<path class="st16" d="M70.7,97.9c0.8,0,2,0.4,2.7,0.4c2.3,0,3.1-1.5,4.1,1.7c0.3,0.9,0.6,1.5,0.9,2.5h0.4c0-1.1,0-2.2,0-3.3
			c0-0.5,0-1.2,0-1.7c0-0.8,0.1-0.9-0.6-1c-1.2-0.2-1.9,0.2-3-0.3c-1-0.5-1.1-1.2-1.8-1.7c-0.6,0.8-0.8,1-1.4,1.7
			c-0.3,0.4-0.3,0.4-0.6,0.8C70.9,97.4,70.9,97.1,70.7,97.9z"/>
		<path class="st16" d="M31.5,93.9c3.3,0,8-3.2,8.3-6.9L31.5,93.9z"/>
		<path class="st16" d="M68,105.2c1.6-0.4,3.3-0.6,5-0.8c0.9-0.1,1.7-0.3,2.5-0.4c2.3-0.3,1.8,0,2.3-0.6c-0.5-0.2-2.7-0.4-3.5-0.4
			l0.2-1.2C73.8,101.8,68.5,104.5,68,105.2z"/>
		<path class="st16" d="M32.2,95.4v0.4c1.2,0.3,0.8,0.8,2.9,0.8c1.8,0,2.1-0.9,2.7-2.1C36,94.6,33.9,95.3,32.2,95.4z"/>
	</g>
	<g>
		<path class="st17" d="M70.4,98c0.8,0,2,0.4,2.7,0.4c2.3,0,3.1-1.5,4.1,1.7c0.3,0.9,0.6,1.5,0.9,2.5h0.4c0-1.1,0-2.2,0-3.3
			c0-0.5,0-1.2,0-1.7c0-0.8,0.1-0.9-0.6-1c-1.2-0.2-1.9,0.2-3-0.3c-1-0.5-1.1-1.2-1.8-1.7c-0.6,0.8-0.8,1-1.4,1.7
			c-0.3,0.4-0.3,0.4-0.6,0.8C70.6,97.6,70.7,97.3,70.4,98z"/>
		<path class="st17" d="M31.3,94.1c3.3,0,8-3.2,8.3-6.9L31.3,94.1z"/>
		<path class="st17" d="M67.7,105.3c1.6-0.4,3.3-0.6,5-0.8c0.9-0.1,1.7-0.3,2.5-0.4c2.3-0.3,1.8,0,2.3-0.6c-0.5-0.2-2.7-0.4-3.5-0.4
			l0.2-1.2C73.5,101.9,68.2,104.6,67.7,105.3z"/>
		<path class="st17" d="M31.9,95.5v0.4c1.2,0.3,0.8,0.8,2.9,0.8c1.8,0,2.1-0.9,2.7-2.1C35.7,94.7,33.6,95.5,31.9,95.5z"/>
	</g>
	<path class="st17" d="M31.3,111.8c2.1-0.2,4.6-1.5,4.8-3.5L31.3,111.8z"/>
	<polygon class="st17" points="62.5,117 62.5,117.2 62.8,117 	"/>
	<polygon class="st17" points="31.5,33.9 31.5,33.7 31.3,33.8 	"/>
	<polygon class="st17" points="76.1,48 76.1,48.3 76.3,48.1 	"/>
	<polygon class="st17" points="57.5,102.8 57.3,102.8 57.5,103.1 	"/>
	<g>
		<g>
			<defs>
				<path id="SVGID_1_" d="M52.4,70.8C53,72,50.4,86.6,50,88.7c-1.6,7.1-6.4,9.3,2.3,11.2c1.4,0.3,3.3,2.2,3.9,2.1
					c0.2,0,1.5-1.4,1.8-1.8c2.1-2.4,11,1.4,6.2-7.1c-2.3-4-2.5-18.6-3.6-22.3C60.3,70.1,52.3,70.7,52.4,70.8z"/>
			</defs>
			<clipPath id="SVGID_2_">
				<use xlink:href="#SVGID_1_"  style="overflow:visible;"/>
			</clipPath>
			<g transform="matrix(1 0 0 1 0 0)" class="st20">
				
					<image style="overflow:visible;enable-background:new    ;" width="117" height="196" xlink:href="365846BC.jpg"  transform="matrix(0.1571 0 0 0.157 47.1613 70.8582)">
				</image>
			</g>
		</g>
	</g>
	<g>
		<g>
			<defs>
				<path id="SVGID_3_" d="M46.2,122c0.7,2.6,8.8,7.9,11.1,6.7c0.8-0.4,1.8-0.5,3.4-2c2.6-2.4,6.9-5.7,1.1-9.2
					c-1.2-0.7-4-1.6-5.7-1.6c-4.7,0-7.4,1.2-9.8,5.9C46.3,121.9,46.2,122,46.2,122z"/>
			</defs>
			<clipPath id="SVGID_4_">
				<use xlink:href="#SVGID_3_"  style="overflow:visible;"/>
			</clipPath>
			<g class="st21">
				
					<image style="overflow:visible;enable-background:new    ;" width="117" height="84" xlink:href="365846BE.jpg"  transform="matrix(0.155 0 0 0.1541 46.4052 115.922)">
				</image>
			</g>
		</g>
	</g>
	<g>
		<g>
			<defs>
				<path id="SVGID_5_" d="M83,112.9c-4.7,2.4-11.7,7.4-15.2,6.9c1.1,2.6,1,5.1-0.4,7.4C72.8,124.4,79.8,117.7,83,112.9z"/>
			</defs>
			<clipPath id="SVGID_6_">
				<use xlink:href="#SVGID_5_"  style="overflow:visible;"/>
			</clipPath>
			<g class="st22">
				
					<image style="overflow:visible;enable-background:new    ;" width="101" height="93" xlink:href="365846BA.jpg"  transform="matrix(0.1541 0 0 0.1548 67.3758 112.9246)">
				</image>
			</g>
		</g>
	</g>
	<g>
		<g>
			<defs>
				<path id="SVGID_7_" d="M31.6,113.3c3.7,2.4,10.7,7.9,13.5,7.4c-1.1,2.1-1.4,4.9-0.2,7.3C40.5,125.1,34,118.1,31.6,113.3z"/>
			</defs>
			<clipPath id="SVGID_8_">
				<use xlink:href="#SVGID_7_"  style="overflow:visible;"/>
			</clipPath>
			<g transform="matrix(1 0 0 1 0 0)" class="st23">
				
					<image style="overflow:visible;enable-background:new    ;" width="89" height="97" xlink:href="365846BB.jpg"  transform="matrix(0.1517 0 0 0.1513 31.5515 113.2943)">
				</image>
			</g>
		</g>
	</g>
	<g>
		<g>
			<defs>
				<path id="SVGID_9_" d="M16.8,43.9c-1.5-1.7-3.4-5.5-1.9-9c1.1-2.7,10.9-1.3,12.9-1.3c2.8,0,3.2,2.2,2.1,4.2c-1.1,2-3,2.2-4.3,1
					c-1.6-1.6-5.9-2.4-7.6-1.5c-1.4,0.7-1.4,3.9-1.4,5.3C16.5,43.3,17.3,44.5,16.8,43.9z"/>
			</defs>
			<clipPath id="SVGID_10_">
				<use xlink:href="#SVGID_9_"  style="overflow:visible;"/>
			</clipPath>
			<g transform="matrix(1 0 0 1 0 0)" class="st24">
				
					<image style="overflow:visible;enable-background:new    ;" width="106" height="72" xlink:href="365846B4.jpg"  transform="matrix(0.1499 0 0 0.1502 14.458 33.2511)">
				</image>
			</g>
		</g>
	</g>
	<g>
		<g>
			<defs>
				<path id="SVGID_11_" d="M16.8,43.9c-1.5-1.7-3.4-5.5-1.9-9c1.1-2.7,10.9-1.3,12.9-1.3c2.8,0,3.2,2.2,2.1,4.2c-1.1,2-3,2.2-4.3,1
					c-1.6-1.6-5.9-2.4-7.6-1.5c-1.4,0.7-1.4,3.9-1.4,5.3C16.5,43.3,17.3,44.5,16.8,43.9z"/>
			</defs>
			<clipPath id="SVGID_12_">
				<use xlink:href="#SVGID_11_"  style="overflow:visible;"/>
			</clipPath>
			<g transform="matrix(1 0 0 1 0 0)" class="st25">
				
					<image style="overflow:visible;enable-background:new    ;" width="106" height="72" xlink:href="365846A9.jpg"  transform="matrix(0.1499 0 0 0.1502 14.458 33.2511)">
				</image>
			</g>
		</g>
	</g>
	<g>
		<g>
			<defs>
				<path id="SVGID_13_" d="M86.9,44.6c-1.5-2-6.7-4.9-3.9-7.1c1.6-1.3,6.2-3.1,8.1-3.1c2,0,2.9,0.8,6.8,2.4
					c2.7,1.1,3.2,2.9,2.1,4.7c-1.1,1.7-2.3,4.3-3.6,2.7c-1.6-2-7.6-6.5-9.3-6c-1.4,0.4-0.5,3.6-0.5,5C86.7,43.9,87.4,45.3,86.9,44.6
					z"/>
			</defs>
			<clipPath id="SVGID_14_">
				<use xlink:href="#SVGID_13_"  style="overflow:visible;"/>
			</clipPath>
			<g class="st26">
				
					<image style="overflow:visible;enable-background:new    ;" width="117" height="67" xlink:href="365846AA.jpg"  transform="matrix(0.1569 0 0 0.1535 82.1893 34.4951)">
				</image>
			</g>
		</g>
	</g>
	<g>
		<g>
			<defs>
				<path id="SVGID_15_" d="M60.3,47.8c6.7-0.4,9.5,2.5,12.8,3.7c-1.5,2.4-7.3,2.8-9.4,0.8c-1.4-1.3-4.1-0.2-3.8-4.5L60.3,47.8z"/>
			</defs>
			<clipPath id="SVGID_16_">
				<use xlink:href="#SVGID_15_"  style="overflow:visible;"/>
			</clipPath>
			<g transform="matrix(1 0 0 1 0 0)" class="st27">
				
					<image style="overflow:visible;enable-background:new    ;" width="89" height="42" xlink:href="365846AB.jpg"  transform="matrix(0.1423 0 0 0.1387 60.1391 47.8003)">
				</image>
			</g>
		</g>
	</g>
	<g>
		<g>
			<defs>
				<path id="SVGID_17_" d="M41.6,52.6c5.2-4.1,9.2-3.4,12.6-4.2c0,1-4.7,3.6-7.6,3.1c-1.9-0.3-3.2,5.1-5.4,1.4L41.6,52.6z"/>
			</defs>
			<clipPath id="SVGID_18_">
				<use xlink:href="#SVGID_17_"  style="overflow:visible;"/>
			</clipPath>
			<g class="st28">
				
					<image style="overflow:visible;enable-background:new    ;" width="84" height="38" xlink:href="365846AC.jpg"  transform="matrix(0.1539 0 0 0.1512 41.3149 48.3718)">
				</image>
			</g>
		</g>
	</g>
	<g>
		<g>
			<defs>
				<path id="SVGID_19_" d="M43.5,44.8c5.2-3.4,9.2-2.9,12.6-3.6c0,0.8-4.7,2.9-7.6,2.6c-1.9-0.2-3.2,4.2-5.4,1.2L43.5,44.8z"/>
			</defs>
			<clipPath id="SVGID_20_">
				<use xlink:href="#SVGID_19_"  style="overflow:visible;"/>
			</clipPath>
			<g class="st29">
				
					<image style="overflow:visible;enable-background:new    ;" width="85" height="38" xlink:href="DAC2383F.jpg"  transform="matrix(0.1309 0 0 0.1273 44.1076 41.1605)">
				</image>
			</g>
		</g>
	</g>
	<g>
		<g>
			<defs>
				<path id="SVGID_21_" d="M42.1,46.5c-6.9,7.6-4.8,12.8-5.2,13.6c-1.6-0.1-2,0.6-2.9,0.6C34.4,59.2,36.8,48.8,42.1,46.5z"/>
			</defs>
			<clipPath id="SVGID_22_">
				<use xlink:href="#SVGID_21_"  style="overflow:visible;"/>
			</clipPath>
			<g class="st30">
				
					<image style="overflow:visible;enable-background:new    ;" width="56" height="94" xlink:href="DAC2383B.jpg"  transform="matrix(0.1443 0 0 0.1468 34.0201 46.6571)">
				</image>
			</g>
		</g>
	</g>
	<g>
		<g>
			<defs>
				<path id="SVGID_23_" d="M29.4,61.9c-4.9,16.7,1.6,22.9,2.8,22.1c0.7,2-3,2.7-4.1,0.9C27.5,85.2,22.3,71.3,29.4,61.9z"/>
			</defs>
			<clipPath id="SVGID_24_">
				<use xlink:href="#SVGID_23_"  style="overflow:visible;"/>
			</clipPath>
			<g class="st31">
				
					<image style="overflow:visible;enable-background:new    ;" width="47" height="154" xlink:href="DAC23826.jpg"  transform="matrix(0.1389 0 0 0.1415 25.7041 62.9718)">
				</image>
			</g>
		</g>
	</g>
	<g>
		<g>
			<defs>
				<path id="SVGID_25_" d="M24.5,60.5c-7.5,11.2,0.6,27,1.6,26.8c0.4,0.8-3.2,0.7-5.2,1.2C20.3,88.8,17.2,70.3,24.5,60.5z"/>
			</defs>
			<clipPath id="SVGID_26_">
				<use xlink:href="#SVGID_25_"  style="overflow:visible;"/>
			</clipPath>
			<g class="st32">
				
					<image style="overflow:visible;enable-background:new    ;" width="47" height="179" xlink:href="DAC23827.jpg"  transform="matrix(0.1357 0 0 0.1379 19.7522 62.1355)">
				</image>
			</g>
		</g>
	</g>
	<g>
		<g>
			<defs>
				<path id="SVGID_27_" d="M69.3,38.1c6.1,1.5,10.3,3.9,12.3,7.5c-2.7-1.7-4.6-2.8-8.1-4.6c-1.7-0.8-4.5-1.2-4.6-3.1L69.3,38.1z"/>
			</defs>
			<clipPath id="SVGID_28_">
				<use xlink:href="#SVGID_27_"  style="overflow:visible;"/>
			</clipPath>
			<g class="st33">
				
					<image style="overflow:visible;enable-background:new    ;" width="79" height="50" xlink:href="DAC23836.jpg"  transform="matrix(0.1531 0 0 0.1527 69.2041 37.9489)">
				</image>
			</g>
		</g>
	</g>
	<g>
		<g>
			<defs>
				<path id="SVGID_29_" d="M61.3,41.7c3.2,1.2,10.7,3.2,12.8,6c-2.7-1.7-8.4-2.9-11.7-4.1c-1.8-0.6-2.9-1.2-3-3L61.3,41.7z"/>
			</defs>
			<clipPath id="SVGID_30_">
				<use xlink:href="#SVGID_29_"  style="overflow:visible;"/>
			</clipPath>
			<g transform="matrix(1 0 0 1 0 0)" class="st34">
				
					<image style="overflow:visible;enable-background:new    ;" width="97" height="51" xlink:href="DAC23829.jpg"  transform="matrix(0.1425 0 0 0.1405 59.7654 40.4956)">
				</image>
			</g>
		</g>
	</g>
	<g>
		<g>
			<defs>
				<path id="SVGID_31_" d="M75.7,49.1c2.1,0.3,7.6,14.7,3.2,9.2c-1.3-1.6-5.1,3.8-2.5-2.2C77,54.8,76.7,53.1,75.7,49.1z"/>
			</defs>
			<clipPath id="SVGID_32_">
				<use xlink:href="#SVGID_31_"  style="overflow:visible;"/>
			</clipPath>
			<g transform="matrix(1 0 0 1 0 0)" class="st35">
				
					<image style="overflow:visible;enable-background:new    ;" width="39" height="69" xlink:href="DAC2382A.jpg"  transform="matrix(0.1296 0 0 0.1316 75.5069 49.7965)">
				</image>
			</g>
		</g>
	</g>
	<path class="st16" d="M498.1,87.2V104c0,1.2-1.7,1.3-2.5,1.4c-1.2,0.1-6.2,0.3-7-0.8c-0.1-0.2-0.2-0.4-0.2-0.7V87.2l-13.1-26
		c-0.4-0.7-1.5-2.6-0.7-3.3c0.7-0.7,3.7-0.6,4.7-0.6c1.2,0,3.2,0,4.3,0.4c0.8,0.3,1,0.7,1.4,1.4l5.3,11.7c1.1,2.5,2.1,5,3.1,7.5h0.1
		c2.3-6.6,5.3-12.8,8.1-19.1c0.5-1.5,1.4-1.7,2.8-1.8c1.8-0.1,4-0.1,5.8,0c1,0.1,2.2,0.3,1.8,1.6c-0.1,0.5-0.4,1.2-0.9,2.1
		L498.1,87.2z"/>
	<path class="st16" d="M478.4,101.7c0.3,0.8,1,2.6,0.3,3.3c-0.7,0.7-3.3,0.6-4.3,0.6c-1.2,0-3.4,0.1-4.5-0.3
		c-0.7-0.2-0.9-0.6-1.1-1.2l-3.1-9.6h-18l-3,9.3c-0.2,0.7-0.4,1.1-1.2,1.4c-1.3,0.5-5.4,0.4-6.7,0.2c-2.4-0.3-1.6-2.2-1-3.8
		l14.7-42.3c0.6-1.7,1.6-1.8,3.2-1.9c2.1-0.1,4.4-0.1,6.5,0c0.9,0,2.4,0.1,3,0.9c0.2,0.3,0.4,0.6,0.5,1.1L478.4,101.7z"/>
	<path class="st16" d="M433.6,101.3c0,1,0.1,4.1-1.5,4.1h-21.9c-1.9,0-2.9-1.2-2.9-3.1V59c0-1.7,3.8-1.5,4.9-1.5
		c1,0,4.9-0.1,4.9,1.5v38.4h15C433.7,97.4,433.6,100.3,433.6,101.3z"/>
	<path class="st16" d="M399.9,72.1c0,7.6-3.4,13.2-10.8,15.6c-4,1.3-8.1,1.1-12.2,1.1V104c0,1.2-1.7,1.3-2.5,1.4
		c-1.2,0.1-6.1,0.3-6.9-0.8c-0.1-0.2-0.2-0.4-0.2-0.7V61.1c0-2.1,1.1-3.5,3.3-3.5h11.2c5.3,0,11.3,0.9,15,5.1
		C399,65.4,399.9,68.7,399.9,72.1z"/>
	<path class="st16" d="M296,104c0,1.7-3.9,1.5-4.9,1.5c-1,0-4.9,0.1-4.9-1.5V59c0-1.6,3.9-1.5,4.9-1.5c1,0,4.9-0.1,4.9,1.5V104z"/>
	<path class="st16" d="M276.5,65.1c0,0.9,0,2.2-0.4,3.1c-0.5,1.4-1.6,0.8-2.5,0.2c-5.3-3.2-13.2-4.8-19-2.4
		c-6.3,2.7-8.9,8.9-8.9,15.5c0,6.6,2.3,13,8.8,15.6c3.7,1.5,8.6,1.5,12.2-0.4V85.5l0-7.3h7.1c1.8,0,2.6,1.5,2.6,3.1v19
		c0,1.6-0.4,2.6-2,3.2c-4.3,1.8-9.8,2.6-14.4,2.6c-15.2,0-24.3-8.9-24.3-24.2c0-15.3,9.4-25.2,24.8-25.2c4.1,0,9.6,0.7,13.2,2.8
		c1.2,0.7,2.1,1.2,2.5,2.7C276.4,62.9,276.5,63.8,276.5,65.1z"/>
	<path class="st16" d="M232.4,101.7c0.3,0.8,1,2.6,0.3,3.3c-0.7,0.7-3.3,0.6-4.3,0.6c-1.2,0-3.4,0.1-4.5-0.3
		c-0.7-0.2-0.9-0.6-1.1-1.2l-3.1-9.6h-18l-3,9.3c-0.2,0.7-0.4,1.1-1.2,1.4c-1.3,0.5-5.4,0.4-6.7,0.2c-2.4-0.3-1.6-2.2-1-3.8
		l14.7-42.3c0.6-1.7,1.6-1.8,3.2-1.9c2.1-0.1,4.4-0.1,6.5,0c0.9,0,2.4,0.1,3,0.9c0.2,0.3,0.4,0.6,0.5,1.1L232.4,101.7z"/>
	<path class="st17" d="M217.9,76.1l-10.2-2.4c-1.1-0.2-2.8-1.1-2.5,0.5l2,10.5c0.2,1,0.7,0.9,2.4-0.4l8.8-6
		C219.6,77.2,219.4,76.6,217.9,76.1z"/>
	<path class="st17" d="M391.3,69.8L379,66.9c-1.3-0.2-3.4-1.3-3.1,0.6l2.4,12.7c0.2,1.2,0.8,1.1,2.9-0.5l10.6-7.2
		C393.4,71.1,393.1,70.3,391.3,69.8z"/>
	<path class="st17" d="M463.7,76l-9.8-2.3c-1.1-0.2-2.7-1.1-2.5,0.5l1.9,10.2c0.2,1,0.7,0.9,2.3-0.4l8.5-5.8
		C465.4,77,465.2,76.4,463.7,76z"/>
	<path class="st16" d="M352.8,72.6l-32.1-7.5c-3.5-0.6-8.9-3.5-8,1.5l6.2,33.2c0.6,3.1,2.2,2.9,7.5-1.3l27.6-18.9
		C358.3,76.1,357.6,74,352.8,72.6z"/>
	<path class="st18" d="M352.4,72.5L320.3,65c-3.5-0.6-8.9-3.5-8,1.5l6.2,33.2c0.6,3.1,2.2,2.9,7.5-1.3l27.6-18.9
		C357.8,76,357.2,73.9,352.4,72.5z"/>
	<path class="st16" d="M182.9,104c0,1.2-1.5,1.3-2.4,1.4c-1.2,0.1-5.8,0.3-6.6-0.8c-0.1-0.2-0.2-0.4-0.2-0.7V65.2h-0.1L159.9,104
		c-0.6,1.8-3.5,1.6-5,1.6c-1.3,0-4.5,0.1-4.9-1.6l-13.3-38.8h-0.1V104c0,1.2-1.5,1.3-2.4,1.4c-1.2,0.2-5.8,0.3-6.6-0.8
		c-0.1-0.2-0.2-0.4-0.2-0.7V61.5c0-2.3,1.2-3.9,3.7-3.9h6.3c4.4,0,6.3,1.2,7.5,5.5l10.3,28.4h0.1L166,63.2c1.1-3.7,2.5-5.6,6.6-5.6
		h6.5c2.5,0,3.8,1.3,3.8,3.9L182.9,104L182.9,104z"/>
</g>
</svg>
